<svg width="79" height="79" viewBox="0 0 79 79" fill="none" xmlns="http://www.w3.org/2000/svg">
<path d="M39.5 77.0361C60.2102 77.0361 77 60.2476 77 39.5361C77 18.826 60.2102 2.03613 39.5 2.03613C18.7885 2.03613 2 18.826 2 39.5361C2 60.2476 18.7885 77.0361 39.5 77.0361Z" fill="#F7F7F7" stroke="#FC7073" stroke-width="3" stroke-linecap="round" stroke-linejoin="round"/>
<path d="M40.2444 49.9224C47.8562 49.9224 54.0245 43.7528 54.0245 36.1424C54.0245 30.7617 50.941 26.1016 46.445 23.8329C44.5812 22.8913 42.4755 22.3623 40.2444 22.3623C32.6339 22.3623 26.4644 28.5319 26.4644 36.1424C26.4644 43.7528 32.6339 49.9224 40.2444 49.9224Z" fill="#FC7073"/>
<path d="M15.5508 67.8898C17.1986 62.8027 20.3688 58.7647 24.6926 55.6204C29.0178 52.4748 34.2277 50.7817 39.5747 50.7817C44.9217 50.7817 50.1303 52.4748 54.4554 55.6204C57.4937 57.8296 62.6247 64.8282 62.5755 68.5468C62.5755 69.7635 53.8185 76.3544 38.3639 77.2635C28.5327 76.2972 17.4353 71.2707 15.5508 67.8898Z" fill="#FC7073"/>
</svg>
