<svg width="31" height="31" viewBox="0 0 31 31" fill="none" xmlns="http://www.w3.org/2000/svg">
<path d="M14.0702 10.4079C13.731 10.0686 13.28 9.88184 12.8003 9.88184C12.3206 9.88184 11.8696 10.0686 11.5305 10.4079C11.1912 10.7471 11.0044 11.1981 11.0044 11.6778C11.0044 12.1576 11.1912 12.6086 11.5304 12.9477C11.8697 13.287 12.3206 13.4738 12.8003 13.4738C13.28 13.4738 13.7311 13.287 14.0703 12.9477C14.7705 12.2475 14.7705 11.1082 14.0702 10.4079ZM13.3911 12.2685C13.2333 12.4263 13.0235 12.5131 12.8003 12.5131C12.5772 12.5131 12.3674 12.4263 12.2096 12.2685C12.0519 12.1107 11.965 11.901 11.965 11.6778C11.965 11.4547 12.0519 11.2449 12.2096 11.0871H12.2097C12.3674 10.9294 12.5772 10.8425 12.8003 10.8425C13.0235 10.8425 13.2333 10.9294 13.391 11.0871C13.7167 11.4128 13.7167 11.9429 13.3911 12.2685Z" fill="url(#paint0_linear_269_1446)"/>
<path d="M20.7516 3.72736C20.0515 3.02708 18.912 3.02708 18.2117 3.72736H18.2117C17.5115 4.42765 17.5115 5.56702 18.2117 6.2673C18.5618 6.61751 19.0217 6.79249 19.4817 6.79249C19.9416 6.79249 20.4015 6.61745 20.7516 6.2673C21.0909 5.92812 21.2777 5.47711 21.2777 4.99739C21.2777 4.51756 21.0909 4.06649 20.7516 3.72736ZM20.0724 5.58803C19.7466 5.91365 19.2166 5.91377 18.891 5.58803C18.5652 5.26229 18.5652 4.73232 18.891 4.40658C19.2168 4.08096 19.7466 4.08096 20.0724 4.40658C20.2302 4.56436 20.317 4.77416 20.317 4.99727C20.317 5.22039 20.2302 5.43024 20.0724 5.58803Z" fill="url(#paint1_linear_269_1446)"/>
<path d="M20.7516 17.0897C20.0515 16.3894 18.912 16.3894 18.2117 17.0897H18.2117C17.5115 17.7899 17.5115 18.9293 18.2117 19.6296C18.5618 19.9798 19.0217 20.1548 19.4817 20.1548C19.9416 20.1548 20.4015 19.9797 20.7516 19.6296C21.0909 19.2904 21.2777 18.8394 21.2777 18.3596C21.2777 17.8799 21.0909 17.4288 20.7516 17.0897ZM20.0724 18.9503C19.7466 19.276 19.2168 19.2759 18.891 18.9503C18.5652 18.6246 18.5652 18.0946 18.891 17.7689C19.2168 17.4433 19.7466 17.4433 20.0724 17.7689C20.2302 17.9267 20.317 18.1365 20.317 18.3596C20.317 18.5827 20.2301 18.7925 20.0724 18.9503Z" fill="url(#paint2_linear_269_1446)"/>
<path d="M27.433 10.4079C27.0938 10.0686 26.6428 9.88184 26.1631 9.88184C25.6834 9.88184 25.2324 10.0686 24.8933 10.4079C24.554 10.7471 24.3672 11.1981 24.3672 11.6778C24.3672 12.1576 24.554 12.6086 24.8932 12.9477C25.2325 13.287 25.6834 13.4738 26.1631 13.4738C26.6428 13.4738 27.0939 13.287 27.4332 12.9477C28.1333 12.2475 28.1333 11.1082 27.433 10.4079ZM26.7539 12.2685C26.5961 12.4263 26.3863 12.5131 26.1631 12.5131C25.94 12.5131 25.7302 12.4263 25.5724 12.2685C25.4146 12.1107 25.3278 11.901 25.3278 11.6778C25.3278 11.4547 25.4146 11.2449 25.5724 11.0871H25.5725C25.7302 10.9294 25.94 10.8425 26.1631 10.8425C26.3862 10.8425 26.5961 10.9294 26.7538 11.0871C27.0795 11.4128 27.0795 11.9429 26.7539 12.2685Z" fill="url(#paint3_linear_269_1446)"/>
<path d="M8.7227 20.3213C7.73239 20.3213 6.92676 21.127 6.92676 22.1172C6.92676 23.1075 7.73239 23.9132 8.7227 23.9132C9.713 23.9132 10.5188 23.1075 10.5188 22.1172C10.5187 21.127 9.713 20.3213 8.7227 20.3213ZM8.7227 22.9526C8.26212 22.9526 7.88733 22.5779 7.88733 22.1172C7.88733 21.6566 8.26212 21.2819 8.7227 21.2819C9.18334 21.2819 9.55813 21.6566 9.55813 22.1172C9.55813 22.5778 9.18334 22.9526 8.7227 22.9526Z" fill="url(#paint4_linear_269_1446)"/>
<path d="M3.9987 15.5967C3.00839 15.5967 2.20264 16.4023 2.20264 17.3926C2.20264 18.3829 3.00833 19.1886 3.9987 19.1886C4.98894 19.1886 5.79458 18.3829 5.79464 17.3926C5.7947 16.4024 4.98906 15.5967 3.9987 15.5967ZM3.9987 18.228C3.53806 18.228 3.16327 17.8532 3.16327 17.3926C3.16327 16.932 3.53806 16.5573 3.9987 16.5573C4.45928 16.5573 4.834 16.932 4.83406 17.3926C4.83406 17.8533 4.45928 18.228 3.9987 18.228Z" fill="url(#paint5_linear_269_1446)"/>
<path d="M13.4473 15.5967C12.457 15.5967 11.6514 16.4023 11.6514 17.3926C11.6514 18.3829 12.457 19.1886 13.4473 19.1886C14.4376 19.1886 15.2434 18.3829 15.2434 17.3926C15.2434 16.4024 14.4377 15.5967 13.4473 15.5967ZM13.4473 18.228C12.9867 18.228 12.6119 17.8532 12.6119 17.3926C12.6119 16.932 12.9867 16.5573 13.4473 16.5573C13.908 16.5573 14.2827 16.932 14.2827 17.3926C14.2827 17.8533 13.9079 18.228 13.4473 18.228Z" fill="url(#paint6_linear_269_1446)"/>
<path d="M3.9987 25.0459C3.00839 25.0459 2.20264 25.8516 2.20264 26.8418C2.20264 27.8321 3.00833 28.6378 3.9987 28.6378C4.98894 28.6378 5.79464 27.8321 5.79464 26.8418C5.7947 25.8516 4.98906 25.0459 3.9987 25.0459ZM3.9987 27.6771C3.53806 27.6771 3.16327 27.3024 3.16327 26.8418C3.16327 26.3812 3.53806 26.0064 3.9987 26.0064C4.45928 26.0064 4.83406 26.3812 4.83406 26.8418C4.83406 27.3024 4.45928 27.6771 3.9987 27.6771Z" fill="url(#paint7_linear_269_1446)"/>
<path d="M13.4473 25.0459C12.457 25.0459 11.6514 25.8516 11.6514 26.8418C11.6514 27.8321 12.457 28.6378 13.4473 28.6378C14.4376 28.6378 15.2434 27.8321 15.2434 26.8418C15.2434 25.8516 14.4377 25.0459 13.4473 25.0459ZM13.4473 27.6771C12.9867 27.6771 12.6119 27.3024 12.6119 26.8418C12.6119 26.3812 12.9867 26.0064 13.4473 26.0064C13.908 26.0064 14.2827 26.3812 14.2827 26.8418C14.2827 27.3024 13.9079 27.6771 13.4473 27.6771Z" fill="url(#paint8_linear_269_1446)"/>
<path d="M30.4217 10.2821L20.878 0.7385C20.5051 0.365531 20.0092 0.160156 19.4818 0.160156C18.9544 0.160156 18.4585 0.365531 18.0856 0.738439L8.54201 10.2821C8.16904 10.6551 7.96367 11.1509 7.96367 11.6784C7.96373 12.2058 8.1691 12.7017 8.54201 13.0746L8.86152 13.3941H1.97455C0.885801 13.3941 0 14.2799 0 15.3687V28.8654C0 29.9542 0.885801 30.84 1.97455 30.84H15.4713C16.5601 30.84 17.4458 29.9542 17.4458 28.8654V21.9784L18.0856 22.6182C18.4584 22.9911 18.9543 23.1965 19.4817 23.1965C20.009 23.1965 20.5051 22.9912 20.8781 22.6182L30.4217 13.0746C30.7946 12.7017 31 12.2058 31 11.6784C31 11.1509 30.7946 10.6551 30.4217 10.2821ZM16.4852 28.8654C16.4852 29.4245 16.0303 29.8793 15.4713 29.8793H1.97455C1.41546 29.8793 0.960576 29.4245 0.960576 28.8654V15.3687C0.960576 14.8096 1.41546 14.3547 1.97455 14.3547H15.4713C16.0303 14.3547 16.4852 14.8096 16.4852 15.3687V28.8654ZM29.7424 12.3953L20.1988 21.9389C20.0072 22.1305 19.7527 22.2359 19.4819 22.2359C19.211 22.2359 18.9563 22.1304 18.7649 21.9389L17.4459 20.6199V15.3687C17.4459 14.3479 16.6673 13.5056 15.6729 13.4043C15.6066 13.3976 15.5394 13.3941 15.4712 13.3941H10.2199L9.22117 12.3953C9.02966 12.2038 8.92412 11.9492 8.92412 11.6784C8.92412 11.4075 9.02954 11.1529 9.22117 10.9614L18.7649 1.41778C18.9563 1.22627 19.211 1.12079 19.4818 1.12079C19.7526 1.12079 20.0072 1.22627 20.1987 1.41778L29.7423 10.9614C29.9339 11.1529 30.0394 11.4075 30.0394 11.6784C30.0394 11.9492 29.934 12.2038 29.7424 12.3953Z" fill="url(#paint9_linear_269_1446)"/>
<defs>
<linearGradient id="paint0_linear_269_1446" x1="11.0044" y1="11.6778" x2="14.5954" y2="11.6778" gradientUnits="userSpaceOnUse">
<stop stop-color="#FC6B76"/>
<stop offset="0.820028" stop-color="#F9C041"/>
</linearGradient>
<linearGradient id="paint1_linear_269_1446" x1="17.6865" y1="4.99727" x2="21.2776" y2="4.99727" gradientUnits="userSpaceOnUse">
<stop stop-color="#FC6B76"/>
<stop offset="0.820028" stop-color="#F9C041"/>
</linearGradient>
<linearGradient id="paint2_linear_269_1446" x1="17.6865" y1="18.3596" x2="21.2776" y2="18.3596" gradientUnits="userSpaceOnUse">
<stop stop-color="#FC6B76"/>
<stop offset="0.820028" stop-color="#F9C041"/>
</linearGradient>
<linearGradient id="paint3_linear_269_1446" x1="24.3672" y1="11.6778" x2="27.9582" y2="11.6778" gradientUnits="userSpaceOnUse">
<stop stop-color="#FC6B76"/>
<stop offset="0.820028" stop-color="#F9C041"/>
</linearGradient>
<linearGradient id="paint4_linear_269_1446" x1="6.92676" y1="22.1172" x2="10.5187" y2="22.1172" gradientUnits="userSpaceOnUse">
<stop stop-color="#FC6B76"/>
<stop offset="0.820028" stop-color="#F9C041"/>
</linearGradient>
<linearGradient id="paint5_linear_269_1446" x1="2.20264" y1="17.3926" x2="5.79454" y2="17.3926" gradientUnits="userSpaceOnUse">
<stop stop-color="#FC6B76"/>
<stop offset="0.820028" stop-color="#F9C041"/>
</linearGradient>
<linearGradient id="paint6_linear_269_1446" x1="11.6514" y1="17.3926" x2="15.2433" y2="17.3926" gradientUnits="userSpaceOnUse">
<stop stop-color="#FC6B76"/>
<stop offset="0.820028" stop-color="#F9C041"/>
</linearGradient>
<linearGradient id="paint7_linear_269_1446" x1="2.20264" y1="26.8418" x2="5.79454" y2="26.8418" gradientUnits="userSpaceOnUse">
<stop stop-color="#FC6B76"/>
<stop offset="0.820028" stop-color="#F9C041"/>
</linearGradient>
<linearGradient id="paint8_linear_269_1446" x1="11.6514" y1="26.8418" x2="15.2433" y2="26.8418" gradientUnits="userSpaceOnUse">
<stop stop-color="#FC6B76"/>
<stop offset="0.820028" stop-color="#F9C041"/>
</linearGradient>
<linearGradient id="paint9_linear_269_1446" x1="0" y1="15.4996" x2="30.9991" y2="15.4996" gradientUnits="userSpaceOnUse">
<stop stop-color="#FC6B76"/>
<stop offset="0.820028" stop-color="#F9C041"/>
</linearGradient>
</defs>
</svg>
