<svg width="228" height="96" viewBox="0 0 228 96" fill="none" xmlns="http://www.w3.org/2000/svg">
<path d="M36.1406 91.9123C57.4168 69.3611 102.65 64.1394 137.066 69.4487C159.135 72.8795 182.232 80.6221 198.495 95.5524C171.379 78.437 135.567 73.0353 104.685 73.9015C80.0166 74.7872 55.0809 79.3811 36.1406 91.9123V91.9123Z" fill="#F7F7F7"/>
<path d="M102.777 39.2621C103.799 40.0407 104.981 40.4544 106.203 40.4544C107.093 40.4544 107.969 40.2354 108.797 39.812C110.879 38.7365 112.125 36.6148 112.043 34.274V34.2594C111.901 33.2764 111.39 32.9114 110.986 32.7751C110.081 32.4783 108.855 33.0574 108.159 33.7582L107.745 34.1767L108.329 34.1328C108.836 34.0939 109.419 34.0696 109.882 34.1523C109.926 34.1621 109.964 34.1718 109.999 34.1815C109.999 34.1913 109.989 34.201 109.984 34.2107C109.755 34.7752 109.098 35.8021 108.592 36.279C107.541 37.3155 105.925 37.481 104.83 36.6732C103.755 35.8751 104.032 34.1377 104.748 32.8578C105.619 31.2081 107.848 31.3103 109.561 31.6899L110.295 31.8505L109.765 31.3201C108.704 30.2592 107.181 29.6654 105.731 29.7287C104.475 29.7871 103.395 30.3078 102.616 31.2373C101.473 32.4977 100.85 34.2983 100.996 35.9383C101.117 37.3107 101.73 38.4591 102.777 39.2718V39.2621Z" fill="#F7F7F7"/>
<path d="M227.476 68.344C226.921 67.8233 225.607 67.4388 223.461 67.1809C221.616 66.957 219.626 66.5872 217.538 66.0811C215.455 65.575 213.338 64.9618 211.236 64.2562C209.139 63.5505 207.051 62.7719 205.031 61.9397C203.046 61.1222 201.231 60.2267 199.63 59.2826C199.897 57.4918 199.805 56.1048 199.362 55.151C198.905 54.1777 198.287 53.5597 197.523 53.3261C196.763 53.0925 195.98 53.1509 195.191 53.5013C194.403 53.8517 193.809 54.4259 193.44 55.2046C193.065 55.9881 193.045 56.937 193.391 58.0271C193.727 59.0929 194.622 60.2413 196.053 61.4531C195.737 62.0711 195.226 62.8449 194.539 63.7549C193.814 64.7136 192.972 65.721 192.033 66.7478C191.094 67.7795 190.062 68.7382 188.972 69.6093C187.882 70.4755 186.836 71.1373 185.853 71.5704C184.305 72.2566 183.191 72.3053 182.544 71.7164C181.891 71.1276 181.789 70.1057 182.232 68.6798C182.636 67.507 183.293 66.0908 184.184 64.4703C185.074 62.8498 186.125 61.2 187.308 59.56C188.486 57.9298 189.799 56.4017 191.225 55.0196C192.641 53.6473 194.116 52.5913 195.61 51.8856C197.094 51.1849 198.564 50.9075 199.985 51.0583C201.396 51.2141 202.754 52.0219 204.019 53.4575C204.545 54.2605 205.211 54.8104 206.005 55.0877C206.798 55.37 207.523 55.4187 208.151 55.2338C208.788 55.0488 209.246 54.6595 209.509 54.0804C209.849 53.331 209.066 52.0268 208.818 51.6472L208.788 51.618C206.53 49.8758 206.024 49.6714 203.537 49.0631C201.012 48.445 198.457 48.2796 195.941 48.5716C193.43 48.8636 190.958 49.5741 188.593 50.6934C186.227 51.8126 184.072 53.2677 182.174 55.0245C181.166 55.9783 180.174 57.0635 179.229 58.2558C178.281 59.453 177.453 60.7377 176.767 62.0711C176.081 63.4045 175.531 64.7963 175.122 66.2125C174.718 67.6335 174.567 69.0301 174.67 70.3636C174.796 71.9744 175.322 73.337 176.237 74.4173C177.147 75.4928 178.261 76.2958 179.556 76.8116L179.93 76.9625C180.582 77.2253 180.709 77.2739 181.288 77.2739C181.415 77.2739 181.565 77.2739 181.745 77.2691H182.072C183.497 77.2447 184.826 76.7046 185.999 76.2228L186.208 76.1352C187.619 75.5999 189.001 74.8261 190.31 73.8333C191.615 72.8454 192.822 71.7262 193.902 70.5144C194.977 69.3075 195.96 68.0374 196.822 66.7429C197.654 65.4874 198.316 64.261 198.793 63.0834C200.549 64.0907 202.491 65.0445 204.559 65.9253C206.691 66.8354 208.886 67.6724 211.09 68.417C213.3 69.1664 215.519 69.8039 217.674 70.3052C219.83 70.8113 221.894 71.1909 223.801 71.4342C224.41 71.5412 225.154 71.4342 226.02 71.1276C226.887 70.8113 227.49 70.4122 227.811 69.9353C228.05 69.5801 228.181 69.0204 227.461 68.3391L227.476 68.344Z" fill="#F7F7F7"/>
<path d="M183.935 49.0144C185.098 45.2867 184.787 41.4179 183.088 38.4007C181.054 34.7898 177 30.8139 171.71 30.4927C167.126 30.3175 162.43 33.0476 160.05 37.2911L159.972 37.4322C159.52 38.2352 159.895 38.9944 160.435 39.3594C160.97 39.7244 161.802 39.7876 162.376 39.082C162.975 38.3423 163.651 37.6756 164.381 37.1062C166.489 35.5003 168.946 34.8482 171.297 35.2715C173.803 35.6025 175.818 36.7071 177.453 38.6489C180.786 42.3036 180.65 46.9413 177.044 52.4355C172.82 58.6208 166.382 63.4289 159.379 65.6382C155.529 66.7964 152.235 66.5823 149.573 65.0007C147.68 63.8911 143.227 60.3532 142.706 51.5109C141.903 36.712 152.254 20.2488 162.211 11.2118C165.481 8.35031 168.557 6.46212 171.618 5.4353C172.47 5.12872 173.272 4.92432 174.071 4.80752C174.869 4.68586 175.696 4.62747 176.46 4.62747C176.518 4.62747 176.572 4.62747 176.625 4.62747C178.991 4.62747 180.937 5.64943 182.402 7.65927C183.137 8.66663 183.395 9.95623 183.108 11.1923C183.035 11.5038 182.952 11.8152 182.864 12.1267C182.757 12.5257 182.645 12.9345 182.553 13.3676C182.441 13.9808 182.465 14.5356 182.636 15.0076L182.679 15.1341C182.821 15.5381 182.932 15.8592 183.268 16.1269L183.39 16.2291C183.633 16.4286 183.711 16.4822 184.071 16.5357C184.499 16.5989 184.898 16.5016 185.249 16.2486C185.599 15.9955 185.862 15.5867 186.032 15.032C186.203 14.4869 186.217 13.7423 186.081 12.8226C186.037 12.5257 185.993 12.1948 185.945 11.8444C185.808 10.8225 185.658 9.66425 185.356 8.53523C184.655 5.41097 182.65 1.43994 177.078 0.267129C175.73 -0.000525711 174.552 -0.0637961 173.462 0.0627317C172.299 0.218458 171.136 0.588309 170.109 0.914361C163.272 3.31352 157.077 8.3941 150.614 16.9104C147.252 21.5043 143.782 27.1056 141.315 33.2374C140.093 33.9041 138.701 34.6876 137.149 35.5781C135.061 36.7753 132.852 38.133 130.574 39.6173C130.19 39.0917 129.766 38.5515 129.314 38.0016C128.783 37.3592 128.272 36.6828 127.795 35.9869C127.328 35.3056 126.929 34.5805 126.618 33.8262C126.316 33.1011 126.175 32.3127 126.194 31.4806C126.214 30.6435 126.375 29.8941 126.662 29.2469C126.944 28.6191 127.294 28.147 127.703 27.8502C128.083 27.5777 128.487 27.4852 128.944 27.5679C129.406 27.6555 129.883 28.0157 130.36 28.6434C130.779 29.2128 131.202 29.5389 131.664 29.6459C132.117 29.7481 132.526 29.714 132.871 29.534C133.212 29.3588 133.484 29.0668 133.679 28.658C133.864 28.2687 133.932 27.8405 133.879 27.3879C133.825 26.945 133.65 26.507 133.353 26.0837C133.046 25.6506 132.579 25.3099 131.961 25.0763C130.993 24.6821 129.985 24.5994 128.954 24.8281C127.951 25.052 127.007 25.4802 126.146 26.1129C125.294 26.7406 124.55 27.5485 123.936 28.5218C123.323 29.4999 122.919 30.5851 122.744 31.7531C122.559 33.0281 122.681 34.1425 123.114 35.0574C123.528 35.9382 124.078 36.7509 124.749 37.4712C125.401 38.1768 126.112 38.8581 126.851 39.4907C127.44 39.9969 127.951 40.537 128.365 41.0967C126.754 42.1868 125.163 43.3499 123.625 44.5567C121.98 45.8463 120.462 47.1797 119.119 48.518C117.771 49.866 116.607 51.2432 115.663 52.6156C115.405 52.9903 115.172 53.3699 114.963 53.7446C114.651 54.0269 114.335 54.2994 114.019 54.5573C112.7 55.6425 111.381 56.4747 110.101 57.0197C108.88 57.5453 107.828 57.6523 106.982 57.3409C106.505 57.156 106.091 56.8056 105.75 56.2946C105.395 55.769 105.152 55.0293 105.016 54.0901C104.874 53.1217 104.87 51.8856 104.991 50.4159C105.118 48.9317 105.42 47.1408 105.892 45.0969C106.047 44.3718 106.033 43.7197 105.843 43.1552C105.643 42.5566 105.308 42.1381 104.855 41.9191C104.398 41.7001 103.867 41.7196 103.283 41.9824C102.738 42.2257 102.198 42.7221 101.663 43.4764L101.619 43.564C101.03 45.2575 100.684 47.063 100.587 48.9317C100.563 49.4281 100.558 49.9195 100.563 50.4013C97.8473 53.8419 94.6014 56.864 91.1024 59.1464C90.1632 59.7303 89.37 60.1294 88.6692 60.363C88.6108 60.3824 88.5475 60.4019 88.4843 60.4165C88.4745 60.0466 88.5573 59.633 88.6351 59.2291L88.6741 59.0344C88.966 57.7692 89.3213 56.499 89.6911 55.151L89.7009 55.1121C91.2143 49.6616 92.7813 44.0214 90.3627 38.6926C89.5889 36.9553 87.8468 35.0574 85.5157 35.4078C82.518 35.8117 79.4667 39.5394 76.1916 46.8002C75.8899 43.8706 75.2426 41.7342 74.2645 40.4592C72.8532 38.5564 70.4443 38.2011 67.8213 39.5102C66.2446 40.2791 64.7798 41.8704 63.787 43.8803C62.3027 46.8829 61.6749 50.1532 61.1591 53.2531C61.0374 54.0512 60.9207 54.859 60.8136 55.7058C60.7941 55.6425 60.7698 55.5841 60.7503 55.5208C59.8354 53.0633 58.6675 50.2894 56.3462 48.4888C55.1831 47.608 53.9276 47.2674 52.6136 47.4766C50.9931 47.7345 49.3775 48.8538 48.19 50.5571C47.4017 51.6617 46.769 52.8881 46.2872 54.1777C41.9512 40.4884 37.3232 28.1616 32.1696 16.5892C30.6124 13.2752 29.0016 9.8443 26.6608 6.7979C24.8845 4.55447 23.191 3.59091 21.4926 3.84396C20.3636 4.00455 19.2054 4.6518 18.3149 5.62023C16.1444 8.06319 15.3122 11.3578 14.5823 14.8032C13.8377 18.6818 13.4386 22.8231 13.2829 28.2298C13.2002 31.5876 13.2148 35.0136 13.3219 38.6926C12.5676 38.4201 11.8668 38.1817 11.1904 37.9627C9.14646 37.3495 7.28745 36.8385 5.26787 36.8191C3.40402 36.7753 1.80781 37.4906 0.878321 38.7559C-0.0755038 40.0552 -0.260398 41.7829 0.362508 43.6078C0.805356 44.9704 1.5402 46.1675 2.26044 47.2576C4.01723 49.8514 5.993 52.0365 8.02717 54.2361C10.1781 56.5039 12.1977 58.5186 14.2075 60.397L14.8402 60.981C16.1055 73.2494 17.7017 83.9555 19.7213 93.7176C19.7845 94.0194 20.0522 94.2384 20.3539 94.2384H20.3928C20.748 94.214 21.0206 93.9026 21.0011 93.5425C20.748 88.3694 20.4512 83.1136 20.1641 78.0282L20.1543 77.8968C19.9159 73.7262 19.6726 69.4194 19.4536 65.1662C23.3176 68.6067 28.4468 73.0012 34.2038 76.9138C35.5031 77.7849 36.749 78.5392 38.024 79.2254C40.0631 80.3008 46.2678 83.5662 49.7084 79.7363C52.6818 76.1206 49.3482 64.553 47.7472 58.9955C47.5915 58.4553 47.4503 57.9687 47.3335 57.5453C47.2605 57.3166 47.1924 57.0878 47.1194 56.8591C47.4211 55.9442 47.8104 55.0439 48.2776 54.1874C49.3482 52.2311 50.5454 50.9123 51.835 50.2602C52.5942 49.8952 53.2803 49.8563 53.9373 50.1385C56.0055 51.0437 57.2173 55.0147 57.6748 56.5087C58.6675 59.9737 59.1347 63.5602 59.4656 66.6115C59.4656 66.6504 59.5142 66.9959 59.6359 67.2344C59.9327 67.9692 60.7503 68.5192 61.5436 68.5192H61.5922C62.1324 68.5192 62.6385 68.3391 63.0522 67.979C63.5193 67.5848 63.7529 66.9765 63.7821 66.5482L63.86 65.7793C64.2688 61.9592 64.7506 57.8859 65.5049 54.0025C66.045 51.326 66.6776 48.5034 67.9624 46.0167C68.4734 45.0045 69.398 43.856 70.4979 43.6175C70.4979 43.6175 70.4979 43.6272 70.5027 43.6321C71.0867 45.0093 71.184 46.6347 71.2813 48.2066L71.3057 48.6008C71.3787 50.304 71.3544 52.1435 71.2376 54.4016C71.1062 56.7861 70.9115 59.1415 70.6633 61.4141C70.5319 63.1514 71.6707 64.1345 72.8581 64.3389C74.026 64.5384 75.4811 64.0177 75.9288 62.3923C76.8437 59.088 77.8948 55.7982 79.0433 52.6156C80.2745 49.2577 81.7588 45.3938 83.7832 42.0846L83.9487 41.8315C84.5911 40.8631 85.2578 39.8606 86.1289 39.4615C86.1581 39.481 86.2116 39.5248 86.3041 39.6124C88.202 41.9337 88.1923 45.2624 87.9343 48.2163C87.7154 50.4451 87.1995 52.7372 86.6982 54.9515C86.5474 55.623 86.3966 56.2898 86.2506 56.9662C86.2116 57.1755 86.1727 57.3896 86.1289 57.5988L86.1192 57.6524C85.8856 58.8203 85.6471 60.032 85.9391 61.3508C86.2068 62.2171 86.7129 62.7524 87.4477 62.9519C89.8177 63.5894 94.1147 60.2121 97.2925 57.263C98.5675 56.0221 99.755 54.7617 100.855 53.4915C100.894 53.7251 100.928 53.9587 100.981 54.1874C101.341 55.8372 101.94 57.2679 102.758 58.4505C103.609 59.6768 104.694 60.4019 105.979 60.6063C106.466 60.6988 106.962 60.7474 107.463 60.7474C108.515 60.7474 109.59 60.543 110.666 60.1342C111.833 59.6914 112.666 59.049 113.59 58.2996C113.585 58.6403 113.595 58.9663 113.644 59.268C113.761 60.0126 114.014 60.6501 114.393 61.1659C114.773 61.6818 115.264 62.0954 115.853 62.3874C116.427 62.6697 117.075 62.8546 117.78 62.9276C117.921 62.9422 118.072 62.9519 118.223 62.9519C118.948 62.9519 119.746 62.7719 120.593 62.4166C121.581 61.9981 122.603 61.4044 123.62 60.6452C124.632 59.8909 125.635 58.9955 126.603 57.9833C127.567 56.971 128.452 55.8712 129.231 54.7179C130.701 52.5231 131.718 50.3137 132.263 48.1579C132.788 46.0702 132.672 44.0263 131.908 42.0748C133.017 41.3254 134.136 40.6003 135.231 39.919C136.419 39.1842 137.548 38.4882 138.609 37.841C139.056 37.5685 139.49 37.3057 139.923 37.0429C137.777 43.817 137.037 51.0826 139.071 58.2607C140.867 64.4557 146.171 70.8307 153.972 71.1081C154.201 71.1178 154.425 71.1178 154.653 71.1178C158.376 71.1178 162.231 70.0229 166.713 67.7065C175.331 63.0395 181.599 56.2216 183.911 48.9949L183.935 49.0144ZM116.277 56.6596C116.603 55.7252 117.201 54.713 118.053 53.6375C118.924 52.5426 119.985 51.4136 121.206 50.2894C122.442 49.1507 123.824 47.9876 125.314 46.8391C126.628 45.8269 128 44.8146 129.392 43.8316C129.387 44.1382 129.348 44.4642 129.27 44.8049C129.056 45.7539 128.594 46.8634 127.907 48.1044C127.207 49.3648 126.224 50.8637 124.983 52.5523C124.374 53.3699 123.742 54.1485 123.09 54.8688C122.438 55.5939 121.781 56.2605 121.143 56.8494C120.506 57.4382 119.883 57.9541 119.289 58.3872C118.715 58.8057 118.184 59.1074 117.712 59.2826C117.333 59.4335 117.021 59.4627 116.783 59.3751C116.535 59.2826 116.354 59.1318 116.233 58.9128C116.097 58.6695 116.028 58.3531 116.028 57.9638C116.028 57.5453 116.111 57.1122 116.267 56.6693L116.277 56.6596ZM23.1862 42.907C21.4975 42.104 20.0084 41.4179 18.636 40.8144C18.563 34.8384 18.6263 29.3685 18.8258 24.0982C18.9426 21.7428 19.1324 18.6623 19.5509 15.7133L19.6288 15.2412C20.0084 12.9199 20.4026 10.5207 21.6386 8.72016C21.8479 8.45737 22.0182 8.30163 22.1885 8.22377C22.7239 8.45249 23.2299 8.95374 23.7458 9.48905C25.9941 11.9661 27.7412 14.9492 29.4834 18.0443C31.9993 22.6382 34.3498 27.7431 36.6711 33.6413C39.4499 40.8144 41.6349 47.4717 43.343 53.9733C36.7684 49.9293 29.9894 46.2016 23.191 42.9021L23.1862 42.907ZM29.2254 50.3867C31.3034 51.1897 33.4155 52.0219 35.4594 52.8248L35.5324 52.854C38.2625 53.9295 41.0801 55.0342 43.8783 56.1C44.7835 59.7547 45.5281 63.3607 46.0974 66.8159C46.4819 69.3708 46.8761 72.3247 46.7057 75.0159L46.696 75.1229C46.6376 75.6874 46.5743 76.2763 46.3943 76.6218C46.0974 76.7434 45.8006 76.7435 45.348 76.6997C38.8367 75.4441 26.6365 63.7014 20.0814 57.3944L19.0691 56.4212C18.9231 52.8589 18.8112 49.5886 18.7334 46.4352C22.4221 47.7443 26.1012 49.1653 29.2205 50.3867H29.2254ZM14.008 51.2773C13.5262 50.7663 13.0299 50.2407 12.5335 49.7103L11.8035 48.9122C10.0954 47.0483 8.32886 45.1261 6.95652 43.0335C7.19011 43.0676 7.42373 43.1065 7.65732 43.1455L7.85686 43.1795C9.90564 43.5737 11.9057 44.1625 13.5846 44.693C13.6966 46.8002 13.8377 49.0144 14.008 51.2822V51.2773Z" fill="#F7F7F7"/>
</svg>
