<svg width="31" height="31" viewBox="0 0 31 31" fill="none" xmlns="http://www.w3.org/2000/svg">
<g clip-path="url(#clip0_269_1477)">
<path d="M30.3315 9.84692C30.2772 9.72588 30.1739 9.63349 30.0475 9.59256C28.7389 9.16922 27.2282 9.12635 25.6608 9.46523C25.2442 7.91632 24.5173 6.59512 23.5408 5.62449C23.4466 5.53083 23.3173 5.48154 23.1845 5.48832C21.8102 5.56019 20.3879 6.05922 19.045 6.93467C18.1065 5.63612 16.966 4.67063 15.6899 4.10482C15.5685 4.051 15.43 4.051 15.3085 4.10482C14.0523 4.66173 12.898 5.64405 11.9572 6.93715C10.6131 6.06019 9.18953 5.56019 7.8139 5.48832C7.68112 5.4813 7.55179 5.53089 7.45758 5.62449C6.48114 6.59512 5.75415 7.91638 5.33759 9.46523C3.77015 9.12623 2.25944 9.16916 0.95078 9.59256C0.824418 9.63343 0.721125 9.72589 0.666633 9.84698C-0.0564802 11.452 -0.194406 13.4036 0.267991 15.4909C0.324179 15.7447 0.57557 15.9046 0.829201 15.8486C1.08295 15.7924 1.24304 15.5412 1.18685 15.2874C0.787545 13.4846 0.876125 11.8096 1.44163 10.427C2.62297 10.0911 3.99151 10.0981 5.41497 10.4491C5.46347 10.461 5.51203 10.4744 5.56216 10.4876C6.78339 10.8016 7.94801 11.3508 9.00795 12.0287C9.2258 12.168 9.44032 12.3131 9.65023 12.4641C9.6644 12.4742 9.67839 12.4847 9.69249 12.4949C9.5918 13.0661 9.52266 13.6483 9.48427 14.239C9.48367 14.2486 9.48294 14.2582 9.48234 14.2679C9.30705 17.0198 9.791 19.8612 11.0799 22.3145C11.6377 23.3763 12.3488 24.3707 13.2357 25.1827C13.5265 25.449 13.833 25.6953 14.1589 25.9174C14.1677 25.9234 14.1763 25.9298 14.1851 25.9358C12.8936 26.0925 11.444 25.8948 9.99045 25.3528C7.98216 24.604 6.08026 23.2694 4.49018 21.4933C3.32356 20.1899 2.41826 18.758 1.79953 17.2374C1.70156 16.9967 1.42698 16.8809 1.18637 16.9789C0.945633 17.0769 0.829867 17.3514 0.927893 17.5921C1.58743 19.2131 2.55013 20.7368 3.7891 22.1208C5.48048 24.0101 7.51117 25.4326 9.66174 26.2345C10.9117 26.7005 12.1371 26.9349 13.2937 26.9349C14.0639 26.9349 14.8031 26.8295 15.4991 26.6209C16.1951 26.8296 16.9341 26.9349 17.7045 26.9349C18.8609 26.9349 20.0867 26.7006 21.3365 26.2345C23.487 25.4327 25.5177 24.0101 27.209 22.1208C28.9004 20.2315 30.0904 18.0564 30.6503 15.8305C31.2074 13.6154 31.0972 11.5464 30.3315 9.84692ZM23.0239 6.44303C23.8084 7.28069 24.3997 8.39736 24.7516 9.70318C24.6002 9.74956 24.4489 9.80024 24.2977 9.85334C24.2884 9.85661 24.2791 9.85994 24.2697 9.86321C23.6962 10.0649 23.1381 10.3097 22.5987 10.59C22.3289 10.7302 22.0638 10.8793 21.8034 11.0365C21.7419 11.0736 21.0819 11.4406 21.0945 11.492C20.7701 10.1699 20.2662 8.88658 19.5626 7.7193C20.6956 6.98135 21.8809 6.54384 23.0239 6.44303ZM29.7378 15.6009C29.215 17.6795 28.0981 19.717 26.508 21.4931C24.9179 23.2693 23.016 24.6039 21.0078 25.3527C19.5542 25.8947 18.1047 26.0922 16.8133 25.9357C16.8224 25.9295 16.8313 25.9229 16.8405 25.9166C17.8214 25.249 18.6384 24.3583 19.2925 23.3729C19.5194 23.031 19.7282 22.6765 19.9189 22.3133C19.9203 22.3106 19.9219 22.308 19.9232 22.3054C20.0439 22.0752 19.9551 21.7908 19.7249 21.6701C19.4947 21.5494 19.2103 21.6382 19.0896 21.8683C18.4504 23.0875 17.5872 24.2075 16.4685 25.0229C16.2055 25.2146 15.9294 25.3885 15.6409 25.5389C15.409 25.6598 15.3154 25.5673 15.1113 25.4312C14.0894 24.75 13.2249 23.9332 12.5344 22.9137C11.6699 21.6371 11.0898 20.1787 10.7528 18.6779C10.6672 18.2966 10.5972 17.9116 10.5423 17.5245C10.3868 16.4283 10.3523 15.3154 10.4297 14.2112C10.4738 13.5933 10.5546 12.9826 10.6713 12.386C10.6714 12.3854 10.6716 12.3845 10.6717 12.3839C10.7854 11.8031 10.9344 11.2282 11.1205 10.6664C11.2022 10.4196 11.0684 10.1535 10.8217 10.0717C10.8187 10.0707 10.8158 10.0702 10.8129 10.0692C10.5684 9.99332 10.3077 10.1266 10.2269 10.3704C10.1051 10.7384 9.99789 11.1127 9.90447 11.4923C9.10168 10.9439 8.24445 10.4717 7.34581 10.0998C6.98616 9.95088 6.61925 9.81731 6.24707 9.70318C6.59897 8.3973 7.19027 7.28069 7.97478 6.44303C9.1179 6.5439 10.3032 6.98141 11.4363 7.71954C11.2995 7.94586 11.1703 8.17727 11.0486 8.41208C11.0462 8.4168 11.0435 8.42128 11.0411 8.426C10.9218 8.65687 11.0124 8.94083 11.2433 9.05999C11.4713 9.17775 11.7597 9.08572 11.8775 8.85794C11.8814 8.85019 11.8856 8.84257 11.8896 8.83488C12.0068 8.6094 12.1321 8.3881 12.2643 8.17098C13.1358 6.74516 14.2613 5.65755 15.4994 5.0539C16.6642 5.62195 17.7315 6.62013 18.5795 7.92431C18.6059 7.96506 18.6323 8.00581 18.6583 8.0471C19.4915 9.37241 20.0287 10.8555 20.3281 12.3886C20.5172 13.3567 20.6091 14.3459 20.6091 15.3322C20.6091 16.9952 20.3545 18.5915 19.8525 20.0765C19.7692 20.3227 19.9013 20.5898 20.1477 20.6731C20.2628 20.7119 20.3953 20.7029 20.5042 20.6499C20.615 20.5959 20.7047 20.495 20.7443 20.378C21.2791 18.7959 21.5503 17.0983 21.5503 15.3323C21.5503 14.8304 21.5269 14.3284 21.4813 13.8286C21.4691 13.6944 21.2358 12.5457 21.3062 12.4947C21.3197 12.4849 21.3331 12.475 21.3465 12.4652C22.1094 11.9165 22.9273 11.4414 23.7885 11.0645C25.5737 10.2836 27.6464 9.88379 29.5568 10.4268C30.1487 11.88 30.2142 13.7073 29.7378 15.6009Z" fill="url(#paint0_linear_269_1477)"/>
</g>
<defs>
<linearGradient id="paint0_linear_269_1477" x1="0" y1="15.4993" x2="30.9991" y2="15.4993" gradientUnits="userSpaceOnUse">
<stop stop-color="#FC6B76"/>
<stop offset="0.820028" stop-color="#F9C041"/>
</linearGradient>
<clipPath id="clip0_269_1477">
<rect width="31" height="31" fill="white"/>
</clipPath>
</defs>
</svg>
