<svg width="31" height="31" viewBox="0 0 31 31" fill="none" xmlns="http://www.w3.org/2000/svg">
<g clip-path="url(#clip0_269_1428)">
<path d="M27.5475 2.60734C27.3301 2.39009 26.9777 2.38991 26.7602 2.60734L20.9883 8.37903C20.7708 8.59645 20.7708 8.94883 20.9883 9.16632C21.097 9.275 21.2394 9.32931 21.3819 9.32931C21.5243 9.32931 21.6669 9.275 21.7756 9.16632L27.5475 3.39463C27.7648 3.17714 27.7648 2.8247 27.5475 2.60734Z" fill="url(#paint0_linear_269_1428)"/>
<path d="M29.1172 4.15223C28.8997 3.93493 28.5473 3.93493 28.3299 4.15223L22.558 9.92405C22.3407 10.1415 22.3407 10.4939 22.558 10.7113C22.6667 10.82 22.8093 10.8743 22.9517 10.8743C23.0941 10.8743 23.2366 10.82 23.3453 10.7113L29.1172 4.93947C29.3346 4.72204 29.3346 4.3696 29.1172 4.15223Z" fill="url(#paint1_linear_269_1428)"/>
<path d="M23.672 13.8985L30.837 6.73349C31.0544 6.51601 31.0544 6.16363 30.837 5.9462C30.6195 5.72896 30.2672 5.72878 30.0497 5.9462L22.8849 13.1112C22.0021 13.9939 20.6524 14.2254 19.5263 13.6877C19.3023 13.5807 19.0348 13.6348 18.8701 13.8204L16.4355 16.5634C16.4346 16.5644 16.4335 16.5653 16.4325 16.5664C16.4315 16.5675 16.4308 16.5687 16.4298 16.5698L5.90745 28.4247C5.90479 28.4277 5.90212 28.4308 5.89952 28.4339C5.86483 28.4746 5.83207 28.5104 5.79889 28.5436C5.10412 29.2383 3.97371 29.2383 3.27923 28.5436C2.94271 28.2072 2.75738 27.7597 2.75738 27.2838C2.75738 26.8079 2.94271 26.3604 3.27984 26.0233C3.31217 25.9908 3.34789 25.9582 3.389 25.9232C3.39215 25.9206 3.39518 25.9179 3.39821 25.9152L9.9765 20.0765C10.2065 19.8723 10.2274 19.5205 10.0233 19.2906C9.8192 19.0606 9.46731 19.0396 9.23747 19.2438L2.66353 25.0787C2.60068 25.1323 2.54444 25.1842 2.492 25.2367C1.9452 25.7835 1.64404 26.5105 1.64404 27.2838C1.64404 28.057 1.94514 28.7841 2.49194 29.3309C3.05642 29.8952 3.7977 30.1774 4.53915 30.1774C5.28031 30.1774 6.02176 29.8953 6.58582 29.3312C6.63928 29.2778 6.69105 29.2215 6.74421 29.1593L14.7626 20.1253L22.781 29.1594C22.8341 29.2217 22.8859 29.278 22.939 29.331C23.5033 29.8953 24.2447 30.1775 24.986 30.1775C25.7274 30.1775 26.4688 29.8953 27.0332 29.3309C28.1618 28.2021 28.1618 26.3656 27.0335 25.2372C26.9802 25.1837 26.9239 25.1319 26.8617 25.0788L17.6349 16.8893L19.4401 14.8554C20.9027 15.3736 22.5577 15.0126 23.672 13.8985ZM26.1269 25.9153C26.1299 25.918 26.133 25.9206 26.1361 25.9232C26.1769 25.9579 26.2126 25.9907 26.2459 26.0239C26.9405 26.7186 26.9405 27.8489 26.2459 28.5435C25.5512 29.2382 24.4208 29.2382 23.7259 28.5432C23.693 28.5103 23.6601 28.4745 23.6254 28.4337C23.6228 28.4307 23.6201 28.4276 23.6175 28.4245L15.5068 19.2867L16.8957 17.7218L26.1269 25.9153Z" fill="url(#paint2_linear_269_1428)"/>
<path d="M25.8765 0.985243C25.659 0.76794 25.3066 0.76794 25.0892 0.985243L17.9243 8.1503C16.8099 9.2646 16.449 10.9194 16.9672 12.3823L14.7624 14.3393L12.6434 12.4585C13.7392 10.3023 13.3392 7.68433 11.6007 5.94573C9.87398 4.21905 7.87399 3.00394 5.96913 2.52434C3.98059 2.0238 2.27571 2.35796 1.16806 3.46555C0.0604194 4.57313 -0.273799 6.27825 0.226863 8.26667C0.706515 10.1714 1.92157 12.1714 3.64837 13.898C5.38691 15.6367 8.00484 16.0367 10.1612 14.9408C10.1612 14.9408 12.2334 17.2754 12.2596 17.305C12.3697 17.429 12.5225 17.4921 12.6762 17.4921C12.8077 17.4921 12.9395 17.4459 13.0455 17.3518L18.0023 12.9522C18.1879 12.7875 18.2419 12.5198 18.1351 12.2959C17.5972 11.1697 17.8288 9.82012 18.7115 8.93753L25.8765 1.77253C26.0939 1.55505 26.0939 1.20267 25.8765 0.985243ZM12.7228 16.1498L10.6964 13.8668C10.5169 13.6646 10.2179 13.6204 9.98787 13.7625C8.20307 14.8631 5.91984 14.5953 4.43548 13.1108C2.84891 11.5243 1.73769 9.7075 1.30641 7.99481C0.90529 6.4014 1.13573 5.0724 1.95535 4.25284C2.77486 3.43315 4.10386 3.20283 5.69721 3.60402C7.4099 4.03523 9.22685 5.14639 10.8133 6.73296C12.2977 8.21726 12.5655 10.5005 11.4649 12.2853C11.323 12.5154 11.367 12.8143 11.5692 12.9938L13.9237 15.0836L12.7228 16.1498Z" fill="url(#paint3_linear_269_1428)"/>
</g>
<defs>
<linearGradient id="paint0_linear_269_1428" x1="20.8252" y1="5.88673" x2="27.7103" y2="5.88673" gradientUnits="userSpaceOnUse">
<stop stop-color="#FC6B76"/>
<stop offset="0.820028" stop-color="#F9C041"/>
</linearGradient>
<linearGradient id="paint1_linear_269_1428" x1="22.395" y1="7.4317" x2="29.28" y2="7.4317" gradientUnits="userSpaceOnUse">
<stop stop-color="#FC6B76"/>
<stop offset="0.820028" stop-color="#F9C041"/>
</linearGradient>
<linearGradient id="paint2_linear_269_1428" x1="1.64404" y1="17.98" x2="30.9992" y2="17.98" gradientUnits="userSpaceOnUse">
<stop stop-color="#FC6B76"/>
<stop offset="0.820028" stop-color="#F9C041"/>
</linearGradient>
<linearGradient id="paint3_linear_269_1428" x1="0" y1="9.15697" x2="26.0388" y2="9.15697" gradientUnits="userSpaceOnUse">
<stop stop-color="#FC6B76"/>
<stop offset="0.820028" stop-color="#F9C041"/>
</linearGradient>
<clipPath id="clip0_269_1428">
<rect width="31" height="31" fill="white"/>
</clipPath>
</defs>
</svg>
