<svg width="31" height="31" viewBox="0 0 31 31" fill="none" xmlns="http://www.w3.org/2000/svg">
<path d="M6.26055 2.43965L8.44023 5.6123H3.99609L14.1498 17.6914V29.6918C11.4494 29.716 9.33633 29.9098 9.33633 30.152C9.33633 30.1641 9.34238 30.1762 9.35449 30.1883H19.926C19.9381 30.1762 19.9441 30.1641 19.9441 30.152C19.9441 29.9098 17.8311 29.716 15.1307 29.6918V17.6975L25.2844 5.61836H9.51797L6.99922 1.93711C6.55117 1.2832 5.80645 0.889648 5.01328 0.889648H0.363281V1.78574H5.00723C5.50977 1.78574 5.97598 2.02793 6.26055 2.43965ZM23.2379 6.56895L21.5184 8.61543H11.5766L10.1719 6.56895H23.2379ZM9.09414 6.56895L10.4988 8.61543H8.89434L15.2094 16.1293L14.6463 16.8014L6.04863 6.56895H9.09414Z" fill="url(#paint0_linear_269_1481)"/>
<path d="M26.2166 8.75508C28.1602 8.75508 29.7404 7.1748 29.7404 5.23125C29.7404 3.2877 28.1602 1.70742 26.2166 1.70742C24.3396 1.70742 22.8078 3.17871 22.6988 5.02539H21.8027C21.9117 2.68223 23.8492 0.817383 26.2166 0.817383C28.6506 0.817383 30.6365 2.79727 30.6365 5.2373C30.6365 7.67734 28.6566 9.65723 26.2166 9.65723C25.1812 9.65723 24.2307 9.3 23.4799 8.70059L24.0551 8.01641C24.6545 8.47656 25.4053 8.75508 26.2166 8.75508Z" fill="url(#paint1_linear_269_1481)"/>
<defs>
<linearGradient id="paint0_linear_269_1481" x1="0.363281" y1="15.5386" x2="25.2837" y2="15.5386" gradientUnits="userSpaceOnUse">
<stop stop-color="#FC6B76"/>
<stop offset="0.820028" stop-color="#F9C041"/>
</linearGradient>
<linearGradient id="paint1_linear_269_1481" x1="21.8027" y1="5.23718" x2="30.6363" y2="5.23718" gradientUnits="userSpaceOnUse">
<stop stop-color="#FC6B76"/>
<stop offset="0.820028" stop-color="#F9C041"/>
</linearGradient>
</defs>
</svg>
