<svg width="20" height="31" viewBox="0 0 20 31" fill="none" xmlns="http://www.w3.org/2000/svg">
<path d="M9.06439 7.90726L9.17754 7.93075L9.28952 7.90221C9.87114 7.75398 10.4528 7.60574 11.0344 7.4575C13.3131 6.87676 15.5921 6.29594 17.871 5.71482C18.1388 5.6467 18.337 5.7013 18.483 5.80126C18.6397 5.90853 18.7641 6.08874 18.8229 6.30209C18.8817 6.51579 18.865 6.72662 18.7877 6.88674C18.7168 7.0337 18.5798 7.17234 18.3136 7.23985L18.313 7.24001L10.7456 9.16888L10.3692 9.26486V9.65338V9.66812V9.68285V9.69759V9.71232V9.72706V9.74179V9.75653V9.77126V9.78599V9.80073V9.81546V9.8302V9.84493V9.85967V9.8744V9.88913V9.90387V9.9186V9.93334V9.94807V9.96281V9.97754V9.99228V10.007V10.0217V10.0365V10.0512V10.0659V10.0807V10.0954V10.1102V10.1249V10.1396V10.1544V10.1691V10.1838V10.1986V10.2133V10.228V10.2428V10.2575V10.2722V10.287V10.3017V10.3164V10.3312V10.3459V10.3606V10.3754V10.3901V10.4048V10.4196V10.4343V10.4491V10.4638V10.4785V10.4933V10.508V10.5227V10.5375V10.5522V10.5669V10.5817V10.5964V10.6111V10.6259V10.6406V10.6553V10.6701V10.6848V10.6995V10.7143V10.729V10.7438V10.7585V10.7732V10.788V10.8027V10.8174V10.8322V10.8469V10.8616V10.8764V10.8911V10.9058V10.9206V10.9353V10.95V10.9648V10.9795V10.9943V11.009V11.0237V11.0385V11.0532V11.0679V11.0827V11.0974V11.1121V11.1269V11.1416V11.1563V11.1711V11.1858V11.2005V11.2153V11.23V11.2448V11.2595V11.2742V11.289V11.3037V11.3184V11.3332V11.3479V11.3626V11.3774V11.3921V11.4068V11.4216V11.4363V11.4511V11.4658V11.4805V11.4953V11.51V11.5247V11.5395V11.5542V11.5689V11.5837V11.5984V11.6131V11.6279V11.6426V11.6574V11.6721V11.6868V11.7016V11.7163V11.731V11.7458V11.7605V11.7752V11.79V11.8047V11.8194V11.8342V11.8489V11.8637V11.8784V11.8931V11.9079V11.9226V11.9373V11.9521V11.9668V11.9815V11.9963V12.011V12.0258V12.0405V12.0552V12.07V12.0847V12.0994V12.1142V12.1289V12.1436V12.1584V12.1731V12.1878V12.2026V12.2173V12.2321V12.2468V12.2615V12.2763V12.291V12.3057V12.3205V12.3352V12.3499V12.3647V12.3794V12.3942V12.4089V12.4236V12.4384V12.4531V12.4678V12.4826V12.4973V12.512V12.5268V12.5415V12.5563V12.571V12.5857V12.6005V12.6152V12.6299V12.6447V12.6594V12.6741V12.6889V12.7036V12.7184V12.7331V12.7478V12.7626V12.7773V12.792V12.8068V12.8215V12.8363V12.851V12.8657V12.8805V12.8952V12.9099V12.9247V12.9394V12.9541V12.9689V12.9836V12.9984V13.0131V13.0278V13.0426V13.0573V13.072V13.0868V13.1015V13.1163V13.131V13.1457V13.1605V13.1752V13.1899V13.2047V13.2194V13.2341V13.2489V13.2636V13.2784V13.2931V13.3078V13.3226V13.3373V13.352V13.3668V13.3815V13.3963V13.411V13.4257V13.4405V13.4552V13.4699V13.4847V13.4994V13.5142V13.5289V13.5436V13.5584V13.5731V13.5878V13.6026V13.6173V13.6321V13.6468V13.6615V13.6763V13.691V13.7057V13.7205V13.7352V13.75V13.7647V13.7794V13.7942V13.8089V13.8236V13.8384V13.8531V13.8679V13.8826V13.8973V13.9121V13.9268V13.9415V13.9563V13.971V13.9858V14.0005V14.0152V14.03V14.0447V14.0594V14.0742V14.0889V14.1037V14.1184V14.1331V14.1479V14.1626V14.1773V14.1921V14.2068V14.2216V14.2363V14.251V14.2658V14.2805V14.2952V14.31V14.3247V14.3395V14.3542V14.3689V14.3837V14.3984V14.4131V14.4279V14.4426V14.4574V14.4721V14.4868V14.5016V14.5163V14.5311V14.5458V14.5605V14.5753V14.59V14.6047V14.6195V14.6342V14.649V14.6637V14.6784V14.6932V14.7079V14.7226V14.7374V14.7521V14.7669V14.7816V14.7963V14.8111V14.8258V14.8406V14.8553V14.87V14.8848V14.8995V14.9142V14.929V14.9437V14.9585V14.9732V14.9879V15.0027V15.0174V15.0322V15.0469V15.0616V15.0764V15.0911V15.1058V15.1206V15.1353V15.1501V15.1648V15.1795V15.1943V15.209V15.2238V15.2385V15.2532V15.268V15.2827V15.2974V15.3122V15.3269V15.3417V15.3564V15.3711V15.3859V15.4006V15.4154V15.4301V15.4448V15.4596V15.4743V15.489V15.5038V15.5185V15.5333V15.548V15.5627V15.5775V15.5922V15.607V15.6217V15.6364V15.6512V15.6659V15.6807V15.6954V15.7101V15.7249V15.7396V15.7543V15.7691V15.7838V15.7986V15.8133V15.828V15.8428V15.8575V15.8723V15.887V15.9017V15.9165V15.9312V15.946V15.9607V15.9754V15.9902V16.0049V16.0197V16.0344V16.0491V16.0639V16.0786V16.0933V16.1081V16.1228V16.1376V16.1523V16.167V16.1818V16.1965V16.2113V16.226V16.2407V16.2555V16.2702V16.285V16.2997V16.3144V16.3292V16.3439V16.3587V16.3734V16.3881V16.4029V16.4176V16.4324V16.4471V16.4618V16.4766V16.4913V16.5061V16.5208V16.5355V16.5503V16.565V16.5798V16.5945V16.6092V16.624V16.6387V16.6534V16.6682V16.6829V16.6977V16.7124V16.7271V16.7419V16.7566V16.7714V16.7861V16.8008V16.8156V16.8303V16.8451V16.8598V16.8745V16.8893V16.904V16.9188V16.9335V16.9482V16.963V16.9777V16.9925V17.0072V17.0219V17.0367V17.0514V17.0662V17.0809V17.0956V17.1104V17.1251V17.1399V17.1546V17.1693V17.1841V17.1988V17.2721L10.3902 17.3422C10.424 17.4554 10.4414 17.5827 10.4267 17.7343L10.4267 17.7347C10.2123 19.9615 10.5394 21.9656 11.4504 23.6776C12.3623 25.3912 13.8396 26.7748 15.862 27.7907C16.1749 27.9483 16.3035 28.1575 16.3452 28.3564C16.3903 28.5716 16.3439 28.8306 16.2018 29.073C15.9145 29.5632 15.3541 29.8296 14.7685 29.5352L14.7683 29.5351C11.0376 27.6614 8.81798 24.4442 8.38345 20.5815L8.3479 20.2655L8.04664 20.1637C7.96678 20.1367 7.88496 20.1008 7.79876 20.0566L7.54801 19.9282L7.30826 20.0761C7.18385 20.1529 7.05966 20.2296 6.93563 20.3063C5.89317 20.9504 4.86188 21.5876 3.80452 22.181L3.37354 22.4228L3.61037 22.8566C4.15456 23.8533 4.69512 24.8526 5.23605 25.8525C5.3638 26.0887 5.49158 26.3249 5.61943 26.5611C5.98766 27.242 5.68327 27.8897 5.11287 28.2231C4.82936 28.3889 4.51539 28.4491 4.24334 28.3952C3.98615 28.3443 3.72481 28.1844 3.52842 27.8209L3.52837 27.8208C3.37033 27.5284 3.21235 27.2358 3.05432 26.9432C2.26144 25.4749 1.46728 24.0042 0.658321 22.542C0.507035 22.2686 0.460047 21.9129 0.535165 21.587C0.609126 21.2662 0.79076 21.0116 1.05971 20.8789L1.06005 20.8787C2.61757 20.1085 4.0955 19.1944 5.55044 18.2945C5.9439 18.0512 6.33567 17.8089 6.72689 17.5707L6.9669 17.4246V17.1436V17.1287V17.1137V17.0987V17.0837V17.0688V17.0538V17.0388V17.0239V17.0089V16.9939V16.979V16.964V16.949V16.934V16.9191V16.9041V16.8891V16.8742V16.8592V16.8442V16.8292V16.8143V16.7993V16.7843V16.7694V16.7544V16.7394V16.7244V16.7095V16.6945V16.6795V16.6646V16.6496V16.6346V16.6196V16.6047V16.5897V16.5747V16.5598V16.5448V16.5298V16.5148V16.4999V16.4849V16.4699V16.455V16.44V16.425V16.41V16.3951V16.3801V16.3651V16.3502V16.3352V16.3202V16.3052V16.2903V16.2753V16.2603V16.2454V16.2304V16.2154V16.2004V16.1855V16.1705V16.1555V16.1405V16.1256V16.1106V16.0956V16.0807V16.0657V16.0507V16.0357V16.0208V16.0058V15.9908V15.9759V15.9609V15.9459V15.9309V15.916V15.901V15.886V15.871V15.8561V15.8411V15.8261V15.8111V15.7962V15.7812V15.7662V15.7513V15.7363V15.7213V15.7063V15.6914V15.6764V15.6614V15.6464V15.6315V15.6165V15.6015V15.5866V15.5716V15.5566V15.5416V15.5267V15.5117V15.4967V15.4817V15.4668V15.4518V15.4368V15.4218V15.4069V15.3919V15.3769V15.3619V15.347V15.332V15.317V15.3021V15.2871V15.2721V15.2571V15.2422V15.2272V15.2122V15.1972V15.1823V15.1673V15.1523V15.1373V15.1224V15.1074V15.0924V15.0774V15.0625V15.0475V15.0325V15.0175V15.0026V14.9876V14.9726V14.9577V14.9427V14.9277V14.9127V14.8978V14.8828V14.8678V14.8528V14.8379V14.8229V14.8079V14.7929V14.778V14.763V14.748V14.733V14.7181V14.7031V14.6881V14.6731V14.6582V14.6432V14.6282V14.6132V14.5983V14.5833V14.5683V14.5533V14.5384V14.5234V14.5084V14.4934V14.4785V14.4635V14.4485V14.4335V14.4186V14.4036V14.3886V14.3736V14.3587V14.3437V14.3287V14.3137V14.2988V14.2838V14.2688V14.2538V14.2389V14.2239V14.2089V14.1939V14.179V14.164V14.149V14.134V14.1191V14.1041V14.0891V14.0741V14.0592V14.0442V14.0292V14.0142V13.9993V13.9843V13.9693V13.9543V13.9394V13.9244V13.9094V13.8944V13.8794V13.8645V13.8495V13.8345V13.8195V13.8046V13.7896V13.7746V13.7596V13.7447V13.7297V13.7147V13.6997V13.6848V13.6698V13.6548V13.6398V13.6249V13.6099V13.5949V13.5799V13.565V13.55V13.535V13.52V13.5051V13.4901V13.4751V13.4601V13.4452V13.4302V13.4152V13.4002V13.3852V13.3703V13.3553V13.3403V13.3253V13.3104V13.2954V13.2804V13.2654V13.2505V13.2355V13.2205V13.2055V13.1906V13.1756V13.1606V13.1456V13.1307V13.1157V13.1007V13.0857V13.0707V13.0558V13.0408V13.0258V13.0108V12.9959V12.9809V12.9659V12.9509V12.936V12.921V12.906V12.891V12.8761V12.8611V12.8461V12.8311V12.8162V12.8012V12.7862V12.7712V12.7562V12.7413V12.7263V12.7113V12.6963V12.6814V12.6664V12.6514V12.6364V12.6215V12.6065V12.5915V12.5765V12.5615V12.5466V12.5316V12.5166V12.5016V12.4867V12.4717V12.4567V12.4417V12.4268V12.4118V12.3968V12.3818V12.3669V12.3519V12.3369V12.3219V12.3069V12.292V12.277V12.262V12.247V12.2321V12.2171V12.2021V12.1871V12.1722V12.1572V12.1422V12.1272V12.1122V12.0973V12.0823V12.0673V12.0523V12.0374V12.0224V12.0074V11.9924V11.9775V11.9625V11.9475V11.9325V11.9176V11.9026V11.8876V11.8726V11.8576V11.8427V11.8277V11.8127V11.7977V11.7828V11.7678V11.7528V11.7378V11.7229V11.7079V11.6929V11.6779V11.6629V11.648V11.633V11.618V11.603V11.5881V11.5731V11.5581V11.5431V11.5282V11.5132V11.4982V11.4832V11.4682V11.4533V11.4383V11.4233V11.4083V11.3934V11.3784V11.3634V11.3484V11.3335V11.3185V11.3035V11.2885V11.2735V11.2586V11.2436V11.2286V11.2136V11.1987V11.1837V11.1687V11.1537V11.1388V11.1238V11.1088V11.0938V11.0789V11.0639V11.0489V11.0339V11.0189V11.004V10.989V10.974V10.959V10.9441V10.9291V10.9141V10.8991V10.8842V10.8692V10.8542V10.8392V10.8242V10.8093V10.7943V10.7793V10.7643V10.7494V10.7344V10.7194V10.7044V10.6895V10.6745V10.6595V10.6445V10.6295V10.6146V10.5996V10.5846V10.5696V10.5547V10.5397V10.5247V10.5097V10.4948V10.4798V10.4648V10.4498V10.4349V10.4199V10.4049V10.3899V10.3749V10.36V10.345V10.33V10.315V10.3001V10.2851V10.2701V10.2551V10.2402V10.2252V10.2102V10.1952V10.1802V10.1653V10.1503V10.1353V10.1203V10.1054V10.0904V10.0754V10.0604V10.0455V10.0305V10.0155V10.0005V9.98555V9.97058V9.9556V9.94062V9.92565V9.91067V9.8957V9.88072V9.86574V9.85077V9.83579V9.82081V9.80584V9.79086V9.77588V9.76091V9.74593V9.73096V9.71598V9.701V9.68603V9.67105V9.65607V9.6411V9.62612V9.61115V9.59617V9.58119V9.56622V9.55124V9.53626V9.52129V9.50631V9.49134V9.47636C6.9669 8.82802 7.24719 8.40575 7.62721 8.15542C8.02489 7.89345 8.56155 7.80285 9.06439 7.90726Z" stroke="url(#paint0_linear_269_1441)"/>
<path d="M6.61006 6.50694C6.61006 7.74208 5.60878 8.74336 4.37363 8.74336C3.13849 8.74336 2.13721 7.74208 2.13721 6.50694C2.13721 5.27179 3.13849 4.27051 4.37363 4.27051C5.60878 4.27051 6.61006 5.27179 6.61006 6.50694Z" stroke="url(#paint1_linear_269_1441)"/>
<path d="M2.62047 3.08996C2.67692 3.07003 2.7373 3.04859 2.80116 3.0259C2.90944 2.98744 3.02773 2.94542 3.15383 2.90125C3.48404 2.78558 3.85693 2.65926 4.18838 2.56669C4.02178 2.36562 3.85862 2.18306 3.67591 2.00138C3.30766 1.63519 2.84858 1.26186 2.11071 0.761751L2.06251 0.729084L2.02311 0.686215C1.80794 0.452111 1.44576 0.437099 1.21323 0.650537L2.62047 3.08996ZM2.62047 3.08996L1.18369 1.46829L1.18375 1.46824L1.17796 1.46192C0.96354 1.22811 0.979141 0.865473 1.21321 0.650554L2.62047 3.08996Z" stroke="url(#paint2_linear_269_1441)"/>
<defs>
<linearGradient id="paint0_linear_269_1441" x1="0" y1="17.672" x2="19.3576" y2="17.672" gradientUnits="userSpaceOnUse">
<stop stop-color="#FC6B76"/>
<stop offset="0.820028" stop-color="#F9C041"/>
</linearGradient>
<linearGradient id="paint1_linear_269_1441" x1="1.63721" y1="6.50686" x2="7.1099" y2="6.50686" gradientUnits="userSpaceOnUse">
<stop stop-color="#FC6B76"/>
<stop offset="0.820028" stop-color="#F9C041"/>
</linearGradient>
<linearGradient id="paint2_linear_269_1441" x1="0.526855" y1="1.85985" x2="5.13449" y2="1.85985" gradientUnits="userSpaceOnUse">
<stop stop-color="#FC6B76"/>
<stop offset="0.820028" stop-color="#F9C041"/>
</linearGradient>
</defs>
</svg>
