<svg width="31" height="20" viewBox="0 0 31 20" fill="none" xmlns="http://www.w3.org/2000/svg">
<path d="M29.9544 19.4547L29.8144 19.1851L20.695 1.61939C20.693 1.61553 20.6912 1.61394 20.6907 1.61353L29.9544 19.4547ZM29.9544 19.4547H30.2581H30.4928C30.4959 19.4581 30.5 19.4652 30.5 19.4774C30.5 19.4895 30.4959 19.4966 30.4928 19.5H20.325L17.9073 17.9903L17.6425 17.8249L17.3776 17.9903L14.9641 19.4975L11.4704 17.4196L11.2148 17.2676L10.9592 17.4196L7.4613 19.5H0.50717C0.504142 19.4966 0.5 19.4895 0.5 19.4774C0.5 19.4652 0.504142 19.4581 0.50717 19.4547H1.30836H1.58194L1.72945 19.2243L9.92128 6.42941C9.92175 6.42868 9.92218 6.42808 9.92256 6.42759L29.9544 19.4547ZM10.1671 7.00329L11.6968 7.17471L10.1671 7.00329ZM10.1671 7.00329L8.02291 10.3524L9.68868 11.7394M10.1671 7.00329L9.68868 11.7394M9.68868 11.7394L9.68268 11.7469L10.073 12.0594L10.3929 11.6751L10.3856 11.669L12.436 9.10802C12.5263 8.9952 12.6581 8.92712 12.799 8.9205C12.9399 8.91332 13.0771 8.96921 13.1769 9.07304L14.5578 10.5103L14.5043 10.5845L14.91 10.8768L15.2705 10.5304L15.2072 10.4644L15.9564 9.42475L13.8528 6.14062L13.9122 6.08773L13.5797 5.7143L13.1586 5.98398L13.2015 6.05097L9.68868 11.7394ZM20.0958 6.3492L18.7132 7.78821L15.0126 6.99392L15.1724 7.24336L22.8466 19.2244L22.9942 19.4547H23.2677H29.1166H29.9395L29.5603 18.7243L23.7003 7.43674L23.6086 7.26001L23.4204 7.19474L20.6203 6.22324L20.3177 6.11828L20.0958 6.3492ZM18.8151 0.752676L18.3781 0.54237L18.1545 0.972775L16.0512 5.02274L15.8657 5.3799L16.175 5.63743L18.3567 7.45394L18.7145 7.7519L19.0371 7.41611L20.3238 6.07696L22.395 6.79553L23.5811 7.20703L23.0027 6.09277L20.7784 1.80845L20.7016 1.66055L20.5515 1.58829L18.8151 0.752676ZM10.2228 6.5064L9.91374 6.47176L9.74604 6.73369L7.60182 10.0828L7.36394 10.4544L7.70297 10.7367L9.75306 12.4436L10.1447 12.7698L10.4633 12.3719L12.8223 9.42562L14.5495 11.2232L14.965 11.6557L15.3156 11.1691L16.362 9.71706L16.5607 9.44129L16.3774 9.15506L14.0007 5.44461L13.6847 4.9513L13.2472 5.34087L11.7464 6.67714L10.2228 6.5064ZM14.7026 19.3014L14.9645 19.4572L15.223 19.2958L17.6425 17.7849L20.195 19.3788L20.3165 19.4547H20.4598H22.0606H22.9747L22.4817 18.685L16.9683 10.0774L16.5716 9.45802L16.1416 10.0547L14.9638 11.6892L13.2162 9.87038L12.8214 9.45954L12.4653 9.90429L10.1426 12.8052L7.78384 10.8412L7.34836 10.4786L7.04281 10.9558L2.0942 18.6851L1.60146 19.4547H2.51529H7.332H7.46945L7.58759 19.3844L11.2148 17.2272L14.7026 19.3014Z" fill="black" stroke="url(#paint0_linear_269_1427)"/>
<defs>
<linearGradient id="paint0_linear_269_1427" x1="0" y1="9.99972" x2="30.9991" y2="9.99972" gradientUnits="userSpaceOnUse">
<stop stop-color="#FC6B76"/>
<stop offset="0.820028" stop-color="#F9C041"/>
</linearGradient>
</defs>
</svg>
