<svg width="31" height="31" viewBox="0 0 31 31" fill="none" xmlns="http://www.w3.org/2000/svg">
<g clip-path="url(#clip0_269_1487)">
<path d="M12.438 31.0001C12.4378 31.0001 12.4378 31.0001 12.4378 31.0001C11.8082 31.0001 11.1858 30.8988 10.5878 30.6991C8.76226 30.0896 6.22737 28.7676 4.51823 25.9304C1.3428 20.6601 0.148684 12.8167 0.13707 12.7381C0.116821 12.6025 0.191863 12.4707 0.318719 12.4187C3.88157 10.9596 7.59241 9.79793 11.3521 8.96473C12.5882 4.32211 14.7227 0.201663 14.7443 0.159973C14.8077 0.0384765 14.9465 -0.0237605 15.079 0.00840026C20.5088 1.33503 25.7673 3.33347 30.7078 5.94802C30.8289 6.01219 30.8908 6.15066 30.8573 6.28362C30.8381 6.36075 28.8819 14.0494 25.2061 18.9837C23.8035 20.8664 21.9179 22.1813 19.5989 22.8941C19.2895 25.6582 17.9662 27.7137 16.8413 29.0009C15.731 30.2714 14.126 31.0001 12.438 31.0001ZM0.763163 12.8807C0.984864 14.2066 2.21784 20.9583 5.02819 25.623C6.64382 28.3047 9.04575 29.5563 10.7763 30.1341C11.3134 30.3134 11.8723 30.4043 12.4375 30.4043H12.4378C13.9541 30.4043 15.3956 29.75 16.3928 28.6088C17.5934 27.235 19.0324 24.9403 19.0698 21.8098C19.1351 16.3166 16.7953 9.9361 16.3054 8.66292C16.0166 8.70536 15.7279 8.75002 15.4396 8.79618C15.4314 8.79737 15.4234 8.79841 15.4154 8.79901C14.1687 8.99897 12.9041 9.23899 11.6563 9.51235C11.639 9.51608 11.6217 9.51831 11.6045 9.51905C7.91253 10.3299 4.26675 11.4605 0.763163 12.8807ZM19.4392 18.2138C19.6143 19.5066 19.6963 20.7158 19.6832 21.8165C19.6814 21.956 19.6765 22.0976 19.668 22.247C21.7518 21.5564 23.4529 20.3404 24.7286 18.628C27.9835 14.2587 29.8701 7.66177 30.2203 6.36432C25.4535 3.86337 20.3915 1.93954 15.167 0.643575C14.7352 1.50864 13.0743 4.95371 12.0075 8.82298C13.0249 8.60813 14.0554 8.41516 15.0805 8.24751C15.0835 7.99782 15.1304 7.74902 15.2193 7.51526C15.2312 7.48414 15.2447 7.45377 15.2586 7.42384L15.2696 7.39942C15.3152 7.29802 15.4131 7.23043 15.5241 7.22403L18.7716 7.03538C18.8847 7.02913 18.9877 7.08481 19.0446 7.1801C19.3813 7.74455 19.441 8.41933 19.2084 9.03128C18.9379 9.74314 18.3003 10.2528 17.5622 10.3765C17.9054 11.4159 18.3142 12.7658 18.6821 14.2775C19.3795 14.5614 19.9809 15.0943 20.5627 15.9414C20.7322 16.1879 20.8852 16.4525 21.018 16.7275C21.8976 18.5531 21.6757 19.8849 21.6659 19.9408C21.6444 20.0615 21.5511 20.1568 21.4309 20.1808C21.3106 20.2046 21.1881 20.1525 21.1218 20.0493C21.115 20.0388 20.4271 18.9742 19.4588 18.2285C19.452 18.2236 19.4456 18.2187 19.4392 18.2138ZM19.318 17.3965C19.4937 17.5132 19.6627 17.634 19.822 17.7567C20.3306 18.1484 20.7614 18.6109 21.0739 18.9895C21.0198 18.4855 20.868 17.7885 20.4814 16.986C20.3619 16.7383 20.224 16.5002 20.0718 16.2785C19.6796 15.7076 19.2855 15.3019 18.8597 15.0357C19.0419 15.8461 19.1956 16.6375 19.318 17.3965ZM16.6059 8.04829C16.689 8.07465 16.7593 8.13614 16.7932 8.22026C16.8036 8.24617 17.0368 8.8273 17.3712 9.80165C17.9427 9.74209 18.4453 9.36242 18.6518 8.81956C18.7984 8.43363 18.7836 8.01286 18.6148 7.64078L15.7478 7.80739C15.7118 7.9204 15.6892 8.03549 15.6801 8.15207C15.9377 8.11232 16.1954 8.07405 16.4537 8.03728C16.4677 8.03534 16.4816 8.0343 16.4953 8.0343C16.534 8.03192 16.5711 8.03698 16.6059 8.04829ZM11.8539 26.8134C11.2403 26.8134 10.5726 26.6825 9.8127 26.4133C9.4762 26.294 9.14313 26.1463 8.82286 25.974C6.69444 24.8294 5.97753 23.3942 5.94804 23.3336C5.89444 23.2234 5.91395 23.0915 5.99703 23.0014C6.08011 22.9113 6.2101 22.8814 6.32444 22.9261C6.33874 22.9316 7.769 23.4844 9.24854 23.5258C10.7369 23.5671 11.9286 23.2498 11.9398 23.2466C11.9514 23.2435 13.141 22.9139 14.4022 22.1262C15.6576 21.3422 16.6119 20.1418 16.6212 20.1297C16.6975 20.0334 16.8245 19.9936 16.9418 20.0292C17.0591 20.065 17.1427 20.1689 17.1521 20.2911C17.1573 20.3583 17.2648 21.959 16.0077 24.023C15.8184 24.3336 15.6058 24.6295 15.3759 24.9026C14.2629 26.224 13.1766 26.8134 11.8539 26.8134ZM6.96632 23.7576C7.36833 24.2333 8.04847 24.8812 9.10501 25.4495C9.39863 25.6073 9.70371 25.7427 10.0116 25.8518C10.7066 26.0981 11.3092 26.2178 11.854 26.2178C12.9851 26.2178 13.9309 25.6938 14.9205 24.5189C15.131 24.2691 15.3256 23.9979 15.499 23.7131C16.1232 22.6884 16.382 21.7857 16.4883 21.172C16.0638 21.6087 15.4432 22.178 14.7175 22.6313C13.3782 23.4677 12.1473 23.8074 12.0955 23.8214C12.0468 23.8345 10.8101 24.1653 9.23187 24.1209C8.37648 24.0971 7.55325 23.9198 6.96632 23.7576ZM5.98244 19.734C5.93048 19.734 5.87851 19.7204 5.83191 19.6932C5.34637 19.4088 4.99796 18.9538 4.85086 18.412C4.54265 17.2765 5.21549 16.1019 6.35095 15.7935C6.53423 15.7438 6.72288 15.7185 6.91123 15.7185C7.87114 15.7185 8.71744 16.3662 8.96937 17.2936C8.97711 17.3221 8.98307 17.3506 8.98873 17.3792L8.99409 17.4051C9.01895 17.5205 8.97324 17.6398 8.8775 17.709L6.15709 19.6774C6.10513 19.7151 6.04378 19.734 5.98244 19.734ZM6.91108 16.3142C6.77529 16.3142 6.63935 16.3325 6.50684 16.3684C5.68838 16.5907 5.20328 17.4375 5.42558 18.2559C5.51507 18.585 5.70743 18.8696 5.97529 19.0738L8.36248 17.3465C8.14882 16.7335 7.56665 16.3142 6.91108 16.3142ZM15.1512 17.2443C15.1417 17.2443 15.1322 17.2439 15.1226 17.243L11.7803 16.9209C11.6627 16.9096 11.5629 16.8298 11.526 16.7176L11.5172 16.6918C11.5078 16.6647 11.4986 16.6375 11.491 16.6095C11.1827 15.4737 11.8556 14.2991 12.991 13.9907C13.1742 13.941 13.3627 13.9157 13.5512 13.9157C14.5111 13.9157 15.3574 14.5634 15.6094 15.4908C15.7565 16.0328 15.6861 16.6016 15.4111 17.0923C15.3579 17.1866 15.2581 17.2443 15.1512 17.2443ZM12.0409 16.3477L14.9739 16.6303C15.1017 16.3188 15.1237 15.9758 15.0344 15.6467C14.8529 14.9782 14.2428 14.5113 13.5511 14.5113C13.4153 14.5113 13.2794 14.5296 13.1468 14.5655C12.3634 14.7781 11.8854 15.5629 12.0409 16.3477ZM23.6226 12.8432C23.3638 12.8432 23.1089 12.7963 22.8649 12.7036C22.3322 12.5011 21.9102 12.1032 21.6766 11.5834C21.4431 11.0635 21.426 10.4839 21.6287 9.95114C21.8612 9.33919 22.3539 8.87435 22.9804 8.67588C23.0863 8.64237 23.202 8.67037 23.2808 8.74898L25.5832 11.0468C25.6616 11.125 25.6901 11.2403 25.6572 11.346L25.6501 11.3692C25.6403 11.4016 25.6301 11.4341 25.6179 11.4663C25.3047 12.2901 24.503 12.8432 23.6226 12.8432ZM22.9956 9.30584C22.6224 9.47185 22.3319 9.77664 22.1852 10.1624C22.0393 10.5466 22.0517 10.9644 22.2199 11.3391C22.3881 11.7139 22.6925 12.0006 23.0766 12.1466C23.2526 12.2136 23.4364 12.2474 23.6226 12.2474C24.2286 12.2474 24.7831 11.8838 25.0282 11.3342L22.9956 9.30584Z" fill="url(#paint0_linear_269_1487)"/>
</g>
<defs>
<linearGradient id="paint0_linear_269_1487" x1="0.133789" y1="15.4996" x2="30.8654" y2="15.4996" gradientUnits="userSpaceOnUse">
<stop stop-color="#FC6B76"/>
<stop offset="0.820028" stop-color="#F9C041"/>
</linearGradient>
<clipPath id="clip0_269_1487">
<rect width="31" height="31" fill="white"/>
</clipPath>
</defs>
</svg>
