<svg width="21" height="21" viewBox="0 0 21 21" fill="none" xmlns="http://www.w3.org/2000/svg">
<path d="M15.75 1.3125C13.336 1.3125 11.2747 2.67291 10.5 4.57045C9.7253 2.67291 7.66402 1.3125 5.25 1.3125C1.96383 1.3125 0 4.14881 0 6.89062C0 9.70889 1.74759 12.7165 5.19422 15.8294C7.73325 18.1227 10.3097 19.6281 10.3353 19.6432L10.5 19.7387L10.6647 19.6432C10.6906 19.6281 13.2667 18.1227 15.8058 15.8294C19.2524 12.7165 21 9.70889 21 6.89062C21 4.14881 19.0362 1.3125 15.75 1.3125ZM10.5 18.9765C9.19767 18.1814 0.65625 12.7404 0.65625 6.89062C0.65625 4.47136 2.37464 1.96875 5.25 1.96875C7.61709 1.96875 10.1719 3.59986 10.1719 6.23438H10.8281C10.8281 3.59986 13.3829 1.96875 15.75 1.96875C18.6254 1.96875 20.3438 4.47136 20.3438 6.89062C20.3438 12.7372 11.802 18.1811 10.5 18.9765Z" fill="url(#paint0_linear_287_2397)"/>
<defs>
<linearGradient id="paint0_linear_287_2397" x1="0" y1="10.5253" x2="20.9994" y2="10.5253" gradientUnits="userSpaceOnUse">
<stop stop-color="#FC6B76"/>
<stop offset="0.820028" stop-color="#F9C041"/>
</linearGradient>
</defs>
</svg>
