<svg width="19" height="20" viewBox="0 0 19 20" fill="none" xmlns="http://www.w3.org/2000/svg">
<path d="M9.20508 0.900146C10.194 0.900146 11.1607 1.19339 11.9829 1.7428C12.8052 2.29221 13.446 3.0731 13.8245 3.98673C14.2029 4.90036 14.3019 5.90569 14.109 6.8756C13.9161 7.8455 13.4399 8.73642 12.7406 9.43568C12.0413 10.1349 11.1504 10.6111 10.1805 10.8041C9.21062 10.997 8.20529 10.898 7.29166 10.5195C6.37803 10.1411 5.59714 9.50024 5.04773 8.678C4.49832 7.85575 4.20508 6.88905 4.20508 5.90015C4.20508 4.57406 4.73186 3.30229 5.66954 2.36461C6.60723 1.42693 7.879 0.900146 9.20508 0.900146ZM9.20508 8.90015C9.79842 8.90015 10.3784 8.7242 10.8718 8.39456C11.3651 8.06491 11.7497 7.59637 11.9767 7.0482C12.2038 6.50002 12.2632 5.89682 12.1474 5.31488C12.0317 4.73293 11.746 4.19838 11.3264 3.77883C10.9068 3.35927 10.3723 3.07355 9.79035 2.95779C9.20841 2.84204 8.60521 2.90145 8.05703 3.12851C7.50885 3.35557 7.04031 3.74009 6.71067 4.23344C6.38103 4.72678 6.20508 5.3068 6.20508 5.90015C6.20508 6.6958 6.52115 7.45886 7.08376 8.02147C7.64637 8.58408 8.40943 8.90015 9.20508 8.90015ZM0.205078 19.9001V18.9001C0.205078 17.0436 0.942577 15.2632 2.25533 13.9504C3.56809 12.6376 5.34856 11.9001 7.20508 11.9001H11.2051C13.0616 11.9001 14.8421 12.6376 16.1548 13.9504C17.4676 15.2632 18.2051 17.0436 18.2051 18.9001V19.9001H16.2051V18.9001C16.2051 17.5741 15.6783 16.3023 14.7406 15.3646C13.8029 14.4269 12.5312 13.9001 11.2051 13.9001H7.20508C5.879 13.9001 4.60723 14.4269 3.66954 15.3646C2.73186 16.3023 2.20508 17.5741 2.20508 18.9001V19.9001H0.205078Z" fill="black"/>
</svg>
