<svg width="31" height="31" viewBox="0 0 31 31" fill="none" xmlns="http://www.w3.org/2000/svg">
<g clip-path="url(#clip0_269_1485)">
<path d="M29.6009 30.9479H1.39939C1.22088 30.9479 1.076 30.803 1.076 30.6245V28.1751C1.076 27.9966 1.22088 27.8517 1.39939 27.8517H3.22753V11.1979H1.92911C1.75059 11.1979 1.60571 11.053 1.60571 10.8745V8.42498C1.60571 8.24647 1.75059 8.10159 1.92911 8.10159H3.22753V7.04377H0.32346C0.169363 7.04377 0.0367719 6.93511 0.00637292 6.78409C-0.0240261 6.6329 0.0566606 6.48155 0.19863 6.42205L15.3753 0.0777165C15.4552 0.044407 15.5449 0.044407 15.6248 0.0777165L30.8013 6.42205C30.9435 6.48155 31.024 6.6329 30.9936 6.78409C30.9632 6.93511 30.8306 7.04377 30.6765 7.04377H27.7726V8.10159H29.0712C29.2497 8.10159 29.3946 8.24647 29.3946 8.42498V10.8744C29.3946 11.0529 29.2497 11.1978 29.0712 11.1978H27.7726V27.8515H29.6007C29.7793 27.8515 29.9241 27.9964 29.9241 28.1749V30.6243C29.9243 30.803 29.7794 30.9479 29.6009 30.9479ZM1.72278 30.3011H29.2775V28.4985H1.72278V30.3011ZM23.8008 27.8515H24.8753V11.1979H21.8039V25.9319H23.4776C23.6561 25.9319 23.801 26.0768 23.801 26.2553V27.8515H23.8008ZM7.8464 27.8515H23.1541V26.5785H21.5869C21.5536 26.5902 21.5177 26.5965 21.4805 26.5965H19.2297C19.1925 26.5965 19.1566 26.5902 19.1233 26.5785H16.7321C16.6988 26.5902 16.6629 26.5965 16.6257 26.5965H14.3749C14.3377 26.5965 14.3018 26.5902 14.2685 26.5785H11.8772C11.8439 26.5902 11.808 26.5965 11.7708 26.5965H9.51996C9.48277 26.5965 9.44687 26.5902 9.41356 26.5785H7.8464V27.8515ZM6.12514 27.8515H7.19961V26.2551C7.19961 26.0766 7.34449 25.9317 7.523 25.9317H9.19673V11.1979H6.12514V27.8515ZM25.5219 27.8475H27.126V11.1979H25.5219V27.8475ZM3.87416 27.8475H5.47835V11.1979H3.87416V27.8475ZM19.5529 25.9317H21.1569V11.2199H19.5529V25.9317ZM16.9489 25.9317H18.9061V11.1979H16.9489V25.9317ZM14.6981 25.9317H16.3022V11.2199H14.6981V25.9317ZM12.0942 25.9317H14.0513V11.1979H12.0942V25.9317ZM9.84335 25.9317H11.4474V11.2199H9.84335V25.9317ZM27.4494 10.5511H28.748V8.74838H2.25234V10.551H27.4494V10.5511ZM3.87416 8.10159H27.126V7.04377H3.87416V8.10159ZM27.4494 6.39698H29.0646L15.5001 0.726605L1.93558 6.39698H27.4494Z" fill="url(#paint0_linear_269_1485)"/>
</g>
<defs>
<linearGradient id="paint0_linear_269_1485" x1="0" y1="15.4999" x2="30.9991" y2="15.4999" gradientUnits="userSpaceOnUse">
<stop stop-color="#FC6B76"/>
<stop offset="0.820028" stop-color="#F9C041"/>
</linearGradient>
<clipPath id="clip0_269_1485">
<rect width="31" height="31" fill="white"/>
</clipPath>
</defs>
</svg>
