<svg width="212" height="89" viewBox="0 0 212 89" fill="none" xmlns="http://www.w3.org/2000/svg">
<path d="M33.6045 85.4621C53.3875 64.4935 95.4469 59.6382 127.447 64.5749C147.968 67.765 169.443 74.9642 184.566 88.8467C159.353 72.9325 126.054 67.9098 97.3383 68.7152C74.4014 69.5388 51.2156 73.8103 33.6045 85.4621Z" fill="#F7F7F7"/>
<path d="M95.5643 36.5068C96.5146 37.2308 97.6142 37.6154 98.7499 37.6154C99.578 37.6154 100.392 37.4118 101.162 37.0182C103.098 36.0181 104.257 34.0453 104.18 31.8688V31.8552C104.049 30.9411 103.573 30.6018 103.198 30.4751C102.356 30.199 101.216 30.7375 100.569 31.3891L100.184 31.7783L100.727 31.7375C101.198 31.7013 101.741 31.6787 102.171 31.7556C102.211 31.7647 102.248 31.7737 102.279 31.7828C102.279 31.7918 102.27 31.8009 102.266 31.8099C102.053 32.3348 101.442 33.2896 100.972 33.733C99.9943 34.6968 98.492 34.8507 97.4739 34.0996C96.4739 33.3575 96.7318 31.742 97.397 30.552C98.2069 29.018 100.279 29.1131 101.872 29.466L102.555 29.6153L102.062 29.1221C101.076 28.1357 99.6595 27.5836 98.311 27.6425C97.1436 27.6968 96.139 28.1809 95.415 29.0452C94.3517 30.2171 93.7725 31.8914 93.9082 33.4163C94.0213 34.6923 94.5915 35.7602 95.5643 36.5159V36.5068Z" fill="#F7F7F7"/>
<path d="M211.512 63.5477C210.996 63.0635 209.774 62.706 207.779 62.4662C206.064 62.2581 204.213 61.9142 202.272 61.4436C200.335 60.973 198.367 60.4028 196.412 59.7467C194.462 59.0906 192.521 58.3666 190.643 57.5928C188.797 56.8327 187.109 56.0001 185.62 55.1222C185.869 53.457 185.783 52.1674 185.371 51.2805C184.946 50.3756 184.371 49.8009 183.661 49.5837C182.955 49.3665 182.226 49.4208 181.493 49.7466C180.76 50.0724 180.208 50.6063 179.864 51.3303C179.516 52.0589 179.498 52.9412 179.819 53.9548C180.131 54.9458 180.964 56.0136 182.294 57.1404C182 57.715 181.525 58.4345 180.887 59.2806C180.213 60.1721 179.43 61.1087 178.557 62.0635C177.683 63.0228 176.724 63.9142 175.71 64.7242C174.697 65.5296 173.724 66.145 172.81 66.5477C171.371 67.1857 170.335 67.231 169.733 66.6835C169.127 66.136 169.032 65.1857 169.443 63.8599C169.819 62.7694 170.43 61.4526 171.258 59.9458C172.086 58.439 173.063 56.9051 174.163 55.3801C175.258 53.8643 176.48 52.4435 177.805 51.1584C179.122 49.8824 180.493 48.9004 181.882 48.2443C183.263 47.5927 184.629 47.3348 185.95 47.4751C187.263 47.6199 188.525 48.371 189.702 49.7059C190.19 50.4525 190.81 50.9638 191.548 51.2217C192.285 51.4842 192.96 51.5294 193.543 51.3575C194.136 51.1855 194.561 50.8235 194.806 50.2851C195.122 49.5882 194.394 48.3756 194.163 48.0226L194.136 47.9954C192.036 46.3755 191.566 46.1855 189.254 45.6198C186.905 45.0452 184.53 44.8913 182.19 45.1628C179.855 45.4343 177.557 46.095 175.357 47.1357C173.158 48.1764 171.154 49.5294 169.389 51.1629C168.452 52.0498 167.529 53.0589 166.651 54.1675C165.769 55.2806 165 56.4752 164.362 57.715C163.724 58.9549 163.213 60.249 162.832 61.5658C162.457 62.887 162.317 64.1857 162.412 65.4255C162.529 66.9233 163.018 68.1903 163.869 69.1948C164.715 70.1948 165.751 70.9414 166.955 71.4211L167.303 71.5613C167.909 71.8057 168.027 71.851 168.566 71.851C168.683 71.851 168.823 71.8509 168.991 71.8464H169.294C170.62 71.8238 171.855 71.3215 172.946 70.8736L173.14 70.7921C174.453 70.2944 175.738 69.5749 176.955 68.6518C178.167 67.7332 179.29 66.6925 180.294 65.5658C181.294 64.4436 182.208 63.2626 183.009 62.059C183.783 60.8915 184.398 59.7513 184.842 58.6562C186.475 59.5929 188.281 60.4798 190.204 61.2988C192.186 62.1449 194.227 62.9232 196.276 63.6155C198.331 64.3124 200.394 64.9052 202.399 65.3712C204.403 65.8418 206.322 66.1948 208.095 66.421C208.661 66.5206 209.353 66.421 210.159 66.1359C210.964 65.8418 211.525 65.4708 211.824 65.0273C212.046 64.697 212.168 64.1767 211.498 63.5432L211.512 63.5477Z" fill="#F7F7F7"/>
<path d="M171.027 45.5747C172.108 42.1086 171.819 38.5113 170.24 35.7058C168.348 32.3483 164.579 28.6515 159.66 28.3528C155.398 28.1899 151.031 30.7284 148.819 34.6742L148.746 34.8054C148.325 35.552 148.674 36.2579 149.176 36.5973C149.674 36.9366 150.448 36.9955 150.981 36.3393C151.538 35.6516 152.167 35.0316 152.846 34.5022C154.805 33.009 157.09 32.4026 159.276 32.7963C161.606 33.104 163.479 34.1312 165 35.9366C168.099 39.3348 167.973 43.6471 164.62 48.7558C160.692 54.507 154.706 58.9776 148.194 61.032C144.615 62.1089 141.552 61.9098 139.076 60.4392C137.316 59.4075 133.176 56.1179 132.692 47.896C131.945 34.1357 141.57 18.8278 150.828 10.425C153.868 7.76431 156.728 6.00863 159.574 5.05387C160.366 4.7688 161.113 4.57875 161.855 4.47015C162.597 4.35703 163.366 4.30273 164.077 4.30273C164.131 4.30273 164.181 4.30273 164.231 4.30273C166.43 4.30273 168.24 5.25297 169.602 7.12177C170.285 8.05844 170.525 9.25754 170.258 10.4069C170.19 10.6965 170.113 10.9861 170.032 11.2757C169.932 11.6467 169.828 12.0268 169.742 12.4295C169.638 12.9997 169.66 13.5155 169.819 13.9544L169.86 14.0721C169.991 14.4477 170.095 14.7463 170.407 14.9952L170.52 15.0902C170.746 15.2757 170.819 15.3255 171.154 15.3753C171.552 15.4341 171.923 15.3436 172.249 15.1083C172.575 14.873 172.819 14.4929 172.977 13.9771C173.136 13.4703 173.149 12.7779 173.023 11.9227C172.982 11.6467 172.941 11.339 172.896 11.0132C172.769 10.063 172.629 8.98605 172.348 7.93626C171.697 5.03124 169.832 1.33889 164.651 0.248383C163.398 -0.000488818 162.303 -0.0593192 161.289 0.0583294C160.208 0.203128 159.126 0.547023 158.172 0.850195C151.814 3.08099 146.054 7.80503 140.045 15.7237C136.918 19.9952 133.692 25.2034 131.398 30.9049C130.262 31.5248 128.968 32.2533 127.524 33.0814C125.583 34.1945 123.529 35.457 121.411 36.8371C121.054 36.3484 120.66 35.8461 120.239 35.3348C119.746 34.7375 119.271 34.1085 118.827 33.4615C118.393 32.828 118.022 32.1537 117.732 31.4524C117.452 30.7782 117.32 30.0451 117.339 29.2714C117.357 28.4931 117.506 27.7962 117.773 27.1944C118.035 26.6107 118.361 26.1718 118.741 25.8958C119.094 25.6424 119.47 25.5564 119.895 25.6333C120.325 25.7148 120.768 26.0496 121.212 26.6333C121.601 27.1628 121.995 27.4659 122.425 27.5655C122.845 27.6605 123.225 27.6288 123.547 27.4614C123.863 27.2985 124.117 27.027 124.298 26.6469C124.47 26.2849 124.533 25.8867 124.483 25.4659C124.434 25.0541 124.271 24.6469 123.995 24.2532C123.71 23.8505 123.275 23.5337 122.701 23.3165C121.8 22.95 120.863 22.8731 119.904 23.0858C118.972 23.2939 118.094 23.6921 117.293 24.2804C116.501 24.8641 115.809 25.6152 115.239 26.5202C114.669 27.4297 114.293 28.4388 114.13 29.5248C113.958 30.7103 114.072 31.7465 114.474 32.5972C114.859 33.4162 115.37 34.1719 115.995 34.8416C116.601 35.4977 117.262 36.1312 117.949 36.7194C118.497 37.19 118.972 37.6923 119.357 38.2126C117.859 39.2262 116.379 40.3077 114.949 41.4299C113.42 42.629 112.008 43.8688 110.759 45.1132C109.506 46.3666 108.424 47.6472 107.547 48.9232C107.307 49.2716 107.09 49.6246 106.895 49.973C106.605 50.2354 106.311 50.4888 106.017 50.7287C104.791 51.7377 103.565 52.5115 102.375 53.0183C101.239 53.507 100.261 53.6065 99.4741 53.3169C99.0306 53.145 98.646 52.8192 98.3292 52.3441C97.9989 51.8554 97.7727 51.1676 97.646 50.2943C97.5147 49.3938 97.5103 48.2445 97.6234 46.8779C97.741 45.4978 98.0216 43.8326 98.4605 41.9322C98.6053 41.2579 98.5917 40.6516 98.4152 40.1267C98.2297 39.5701 97.9175 39.181 97.4967 38.9774C97.0713 38.7737 96.5781 38.7918 96.0351 39.0362C95.5283 39.2624 95.026 39.724 94.5283 40.4254L94.4876 40.5068C93.94 42.0815 93.6188 43.7602 93.5283 45.4978C93.5057 45.9594 93.5012 46.4164 93.5057 46.8643C90.9808 50.0635 87.9626 52.8735 84.7092 54.9957C83.8359 55.5387 83.0983 55.9097 82.4467 56.1269C82.3924 56.145 82.3336 56.1631 82.2747 56.1767C82.2657 55.8328 82.3426 55.4482 82.415 55.0726L82.4512 54.8916C82.7227 53.7151 83.053 52.5341 83.3969 51.2807L83.406 51.2445C84.8132 46.1766 86.2703 40.9321 84.0214 35.9773C83.3019 34.3619 81.682 32.5972 79.5145 32.923C76.7272 33.2986 73.89 36.7647 70.8447 43.5159C70.5642 40.7919 69.9624 38.8054 69.0529 37.6199C67.7406 35.8506 65.5008 35.5203 63.0618 36.7375C61.5958 37.4525 60.2337 38.9321 59.3107 40.8009C57.9305 43.5928 57.3468 46.6336 56.8672 49.516C56.754 50.2581 56.6455 51.0092 56.5459 51.7965C56.5278 51.7377 56.5052 51.6834 56.4871 51.6246C55.6364 49.3395 54.5504 46.7603 52.392 45.086C51.3105 44.267 50.1431 43.9503 48.9214 44.1449C47.4146 44.3847 45.9123 45.4254 44.8082 47.0091C44.0752 48.0363 43.4869 49.1766 43.039 50.3757C39.0072 37.647 34.704 26.1854 29.9121 15.425C28.4641 12.3435 26.9663 9.15347 24.7898 6.32085C23.1382 4.23485 21.5635 3.33891 19.9843 3.57421C18.9346 3.72353 17.8577 4.32536 17.0296 5.22582C15.0115 7.49734 14.2377 10.5607 13.5589 13.7644C12.8666 17.3708 12.4956 21.2215 12.3508 26.2487C12.2738 29.3709 12.2874 32.5565 12.387 35.9773C11.6856 35.7239 11.034 35.5022 10.4051 35.2986C8.50459 34.7284 6.77604 34.2533 4.89819 34.2352C3.16514 34.1945 1.68095 34.8597 0.816684 36.0362C-0.0702052 37.2443 -0.242124 38.8507 0.337069 40.5475C0.748839 41.8145 1.43212 42.9277 2.10181 43.9412C3.73531 46.353 5.57243 48.3847 7.46386 50.43C9.46388 52.5386 11.3417 54.412 13.2105 56.1586L13.7988 56.7016C14.9753 68.109 16.4595 78.0638 18.3373 87.1409C18.3961 87.4214 18.645 87.625 18.9255 87.625H18.9617C19.292 87.6024 19.5454 87.3128 19.5273 86.978C19.292 82.168 19.016 77.281 18.749 72.5525L18.74 72.4303C18.5183 68.5524 18.292 64.5478 18.0884 60.593C21.6812 63.7922 26.4505 67.8782 31.8035 71.5163C33.0117 72.3262 34.1701 73.0276 35.3556 73.6656C37.2516 74.6656 43.0209 77.7018 46.22 74.1407C48.9848 70.7787 45.8852 60.0229 44.3965 54.8554C44.2517 54.3531 44.1204 53.9007 44.0118 53.507C43.944 53.2943 43.8806 53.0816 43.8127 52.8689C44.0933 52.0183 44.4553 51.1811 44.8897 50.3848C45.8851 48.5657 46.9983 47.3395 48.1974 46.7331C48.9033 46.3938 49.5413 46.3576 50.1522 46.62C52.0753 47.4616 53.202 51.154 53.6273 52.5432C54.5504 55.7649 54.9848 59.0998 55.2925 61.937C55.2925 61.9732 55.3377 62.2944 55.4509 62.5161C55.7269 63.1994 56.4871 63.7107 57.2247 63.7107H57.2699C57.7722 63.7107 58.2428 63.5433 58.6274 63.2085C59.0618 62.8419 59.279 62.2763 59.3061 61.8781L59.3785 61.1632C59.7586 57.6111 60.2066 53.8237 60.908 50.2128C61.4102 47.7241 61.9985 45.0996 63.193 42.7874C63.6682 41.8462 64.5279 40.7783 65.5506 40.5566C65.5506 40.5566 65.5506 40.5656 65.5551 40.5702C66.0981 41.8507 66.1886 43.3621 66.2791 44.8236L66.3017 45.1901C66.3696 46.7739 66.347 48.4843 66.2384 50.5839C66.1162 52.8011 65.9352 54.9911 65.7044 57.1043C65.5822 58.7197 66.6411 59.6337 67.7452 59.8238C68.8311 60.0093 70.1841 59.5251 70.6004 58.0138C71.4511 54.9414 72.4285 51.8825 73.4963 48.9232C74.6412 45.801 76.0213 42.2082 77.9036 39.1312L78.0575 38.8959C78.6548 37.9955 79.2747 37.0633 80.0847 36.6923C80.1118 36.7104 80.1616 36.7511 80.2476 36.8325C82.0123 38.9909 82.0033 42.086 81.7634 44.8326C81.5598 46.9051 81.0801 49.0363 80.6141 51.0952C80.4738 51.7196 80.3336 52.3395 80.1978 52.9685C80.1616 53.1631 80.1254 53.3622 80.0847 53.5567L80.0756 53.6065C79.8584 54.6925 79.6367 55.8192 79.9082 57.0455C80.1571 57.8509 80.6277 58.3487 81.3109 58.5342C83.5146 59.127 87.5101 55.9866 90.4649 53.2445C91.6504 52.0907 92.7545 50.9187 93.7772 49.7377C93.8134 49.9549 93.8451 50.1721 93.8948 50.3848C94.2297 51.9187 94.7862 53.2491 95.5464 54.3486C96.3382 55.4889 97.3474 56.1631 98.542 56.3532C98.9944 56.4391 99.456 56.4844 99.922 56.4844C100.899 56.4844 101.899 56.2943 102.899 55.9142C103.985 55.5025 104.759 54.9052 105.619 54.2083C105.614 54.5251 105.623 54.8283 105.669 55.1088C105.777 55.8011 106.013 56.3939 106.366 56.8735C106.718 57.3532 107.176 57.7378 107.723 58.0093C108.257 58.2717 108.859 58.4437 109.515 58.5116C109.646 58.5251 109.786 58.5342 109.927 58.5342C110.601 58.5342 111.343 58.3667 112.13 58.0364C113.049 57.6473 113.999 57.0953 114.945 56.3894C115.886 55.688 116.818 54.8554 117.719 53.9142C118.615 52.973 119.438 51.9504 120.162 50.878C121.529 48.8372 122.474 46.7829 122.981 44.7783C123.47 42.8371 123.361 40.9367 122.651 39.1222C123.682 38.4253 124.723 37.7511 125.741 37.1176C126.845 36.4344 127.895 35.7873 128.882 35.1855C129.298 34.9321 129.701 34.6877 130.103 34.4434C128.108 40.7421 127.42 47.4978 129.312 54.1721C130.981 59.9324 135.913 65.8601 143.167 66.118C143.38 66.127 143.588 66.127 143.8 66.127C147.262 66.127 150.846 65.1089 155.013 62.9551C163.027 58.6156 168.855 52.2762 171.004 45.5567L171.027 45.5747ZM108.117 52.6834C108.42 51.8146 108.976 50.8735 109.768 49.8734C110.578 48.8553 111.565 47.8055 112.7 46.7603C113.85 45.7014 115.135 44.62 116.52 43.5521C117.741 42.6109 119.017 41.6697 120.311 40.7557C120.307 41.0407 120.271 41.3439 120.198 41.6607C119.999 42.543 119.569 43.5747 118.931 44.7286C118.28 45.9005 117.366 47.2942 116.212 48.8644C115.646 49.6246 115.058 50.3486 114.452 51.0183C113.845 51.6925 113.234 52.3124 112.642 52.8599C112.049 53.4074 111.47 53.8871 110.918 54.2898C110.384 54.6789 109.891 54.9595 109.452 55.1224C109.099 55.2626 108.809 55.2898 108.587 55.2083C108.357 55.1224 108.189 54.9821 108.076 54.7785C107.949 54.5522 107.886 54.2581 107.886 53.8961C107.886 53.507 107.963 53.1042 108.108 52.6925L108.117 52.6834ZM21.5591 39.8959C19.9889 39.1493 18.6042 38.5113 17.3282 37.9502C17.2603 32.3936 17.3192 27.3076 17.5047 22.407C17.6133 20.217 17.7897 17.3527 18.1789 14.6106L18.2513 14.1716C18.6043 12.0132 18.9708 9.78244 20.1201 8.10821C20.3147 7.86386 20.4731 7.71905 20.6314 7.64666C21.1292 7.85933 21.5997 8.3254 22.0794 8.82314C24.1699 11.1263 25.7944 13.9001 27.4143 16.778C29.7537 21.0496 31.9393 25.7962 34.0977 31.2805C36.6814 37.9502 38.7131 44.1403 40.3014 50.1857C34.1882 46.4254 27.8849 42.9593 21.5635 39.8914L21.5591 39.8959ZM27.1745 46.8508C29.1066 47.5974 31.0705 48.3712 32.971 49.1178L33.0388 49.1449C35.5773 50.1449 38.1972 51.1721 40.7991 52.1631C41.6407 55.5613 42.3331 58.9143 42.8625 62.127C43.22 64.5026 43.5865 67.2492 43.4281 69.7515L43.419 69.8511C43.3647 70.376 43.3059 70.9235 43.1385 71.2447C42.8625 71.3579 42.5864 71.3579 42.1656 71.3172C36.1113 70.1497 24.7673 59.231 18.6722 53.3667L17.7309 52.4617C17.5952 49.1495 17.4911 46.1087 17.4187 43.1765C20.8486 44.3937 24.2695 45.715 27.17 46.8508H27.1745ZM13.025 47.6789C12.577 47.2037 12.1155 46.715 11.654 46.2218L10.9752 45.4797C9.38696 43.7467 7.74437 41.9593 6.46834 40.0136C6.68553 40.0453 6.90276 40.0815 7.11996 40.1177L7.30549 40.1493C9.21049 40.5159 11.0702 41.0634 12.6313 41.5566C12.7354 43.5159 12.8666 45.5748 13.025 47.6834V47.6789Z" fill="#F7F7F7"/>
</svg>
